<svg width="154" height="62" viewBox="0 0 154 62" fill="none" xmlns="http://www.w3.org/2000/svg">
<path d="M17.7745 61.32C15.2998 61.32 12.5052 61.1067 9.3905 60.68C7.68383 60.4667 6.5105 60.0187 5.8705 59.336C5.2305 58.6533 4.95317 57.544 5.0385 56.008C5.33717 51.784 6.04117 46.5787 7.1505 40.392C8.25983 34.1627 9.60383 28.168 11.1825 22.408C11.4812 21.3413 12.0785 20.5947 12.9745 20.168C13.8705 19.7413 15.0438 19.528 16.4945 19.528C19.0972 19.528 20.3985 20.2533 20.3985 21.704C20.3985 22.3013 20.2705 22.984 20.0145 23.752C18.9052 27.1653 17.7958 31.752 16.6865 37.512C15.5772 43.2293 14.7878 48.6907 14.3185 53.896C15.5985 54.024 17.0492 54.088 18.6705 54.088C26.1372 54.088 31.7052 51.8267 35.3745 47.304C39.0865 42.7813 40.9425 36.744 40.9425 29.192C40.9425 24.1147 39.4918 20.1893 36.5905 17.416C33.6892 14.6427 29.5932 13.256 24.3025 13.256C20.8892 13.256 17.4972 13.7893 14.1265 14.856C10.7985 15.9227 7.7905 17.3307 5.1025 19.08C4.54783 19.464 3.9505 19.656 3.3105 19.656C2.58517 19.656 2.00917 19.3573 1.5825 18.76C1.15583 18.12 0.9425 17.352 0.9425 16.456C0.9425 15.432 1.11317 14.6 1.4545 13.96C1.79583 13.2773 2.37183 12.6587 3.1825 12.104C6.1265 10.0987 9.5825 8.584 13.5505 7.56C17.5185 6.49333 21.3372 5.96 25.0065 5.96C30.2118 5.96 34.7132 6.87733 38.5105 8.712C42.3078 10.504 45.2305 13.1493 47.2785 16.648C49.3265 20.1467 50.3505 24.3707 50.3505 29.32C50.3505 35.7627 49.0705 41.3947 46.5105 46.216C43.9505 50.9947 40.2172 54.7067 35.3105 57.352C30.4038 59.9973 24.5585 61.32 17.7745 61.32ZM61.2565 61.32C58.6112 61.32 56.4992 60.36 54.9205 58.44C53.3418 56.52 52.5525 54.0027 52.5525 50.888C52.5525 47.4747 53.3418 44.2533 54.9205 41.224C56.4992 38.152 58.5898 35.6987 61.1925 33.864C63.8378 31.9867 66.6325 31.048 69.5765 31.048C70.5152 31.048 71.1338 31.24 71.4325 31.624C71.7738 31.9653 72.0512 32.6053 72.2645 33.544C73.1605 33.3733 74.0992 33.288 75.0805 33.288C77.1712 33.288 78.2165 34.0347 78.2165 35.528C78.2165 36.424 77.8965 38.5573 77.2565 41.928C76.2752 46.8347 75.7845 50.248 75.7845 52.168C75.7845 52.808 75.9338 53.32 76.2325 53.704C76.5738 54.088 77.0005 54.28 77.5125 54.28C78.3232 54.28 79.3045 53.768 80.4565 52.744C81.6085 51.6773 83.1658 49.9707 85.1285 47.624C85.6405 47.0267 86.2165 46.728 86.8565 46.728C87.4112 46.728 87.8378 46.984 88.1365 47.496C88.4778 48.008 88.6485 48.712 88.6485 49.608C88.6485 51.3147 88.2432 52.6373 87.4325 53.576C85.6832 55.752 83.8272 57.5867 81.8645 59.08C79.9018 60.5733 78.0032 61.32 76.1685 61.32C74.7605 61.32 73.4592 60.8507 72.2645 59.912C71.1125 58.9307 70.2378 57.608 69.6405 55.944C67.4218 59.528 64.6272 61.32 61.2565 61.32ZM63.5605 54.856C64.4992 54.856 65.3952 54.3013 66.2485 53.192C67.1018 52.0827 67.7205 50.6107 68.1045 48.776L70.4725 37C68.6805 37.0427 67.0165 37.7253 65.4805 39.048C63.9872 40.328 62.7925 42.0347 61.8965 44.168C61.0005 46.3013 60.5525 48.5627 60.5525 50.952C60.5525 52.2747 60.8085 53.256 61.3205 53.896C61.8752 54.536 62.6218 54.856 63.5605 54.856ZM107.703 46.728C108.258 46.728 108.684 46.984 108.983 47.496C109.324 48.008 109.495 48.712 109.495 49.608C109.495 51.3147 109.09 52.6373 108.279 53.576C106.444 55.8373 104.439 57.6933 102.263 59.144C100.13 60.5947 97.6977 61.32 94.967 61.32C91.2123 61.32 88.4177 59.6133 86.583 56.2C84.791 52.7867 83.895 48.3707 83.895 42.952C83.895 37.7467 84.5563 31.816 85.879 25.16C87.2443 18.504 89.2283 12.7867 91.831 8.008C94.4763 3.22933 97.6123 0.839996 101.239 0.839996C103.287 0.839996 104.887 1.8 106.039 3.72C107.234 5.59733 107.831 8.30667 107.831 11.848C107.831 16.9253 106.423 22.8133 103.607 29.512C100.791 36.2107 96.9723 42.8453 92.151 49.416C92.4497 51.1653 92.9403 52.424 93.623 53.192C94.3057 53.9173 95.2017 54.28 96.311 54.28C98.0603 54.28 99.5963 53.7893 100.919 52.808C102.242 51.784 103.927 50.056 105.975 47.624C106.487 47.0267 107.063 46.728 107.703 46.728ZM99.831 7.176C98.8497 7.176 97.7403 8.94667 96.503 12.488C95.2657 16.0293 94.1777 20.424 93.239 25.672C92.3003 30.92 91.7883 35.9547 91.703 40.776C94.7323 35.784 97.143 30.792 98.935 25.8C100.727 20.7653 101.623 16.1787 101.623 12.04C101.623 8.79733 101.026 7.176 99.831 7.176ZM132.866 46.728C133.421 46.728 133.847 46.984 134.146 47.496C134.487 48.008 134.658 48.712 134.658 49.608C134.658 51.3147 134.253 52.6373 133.442 53.576C131.863 55.496 129.623 57.2667 126.722 58.888C123.863 60.5093 120.791 61.32 117.506 61.32C113.026 61.32 109.549 60.104 107.074 57.672C104.599 55.24 103.362 51.912 103.362 47.688C103.362 44.744 103.981 42.0133 105.218 39.496C106.455 36.936 108.162 34.9093 110.338 33.416C112.557 31.9227 115.053 31.176 117.826 31.176C120.301 31.176 122.285 31.9227 123.778 33.416C125.271 34.8667 126.018 36.8507 126.018 39.368C126.018 42.312 124.951 44.8507 122.818 46.984C120.727 49.0747 117.165 50.7387 112.13 51.976C113.197 53.9387 115.223 54.92 118.21 54.92C120.13 54.92 122.306 54.2587 124.738 52.936C127.213 51.5707 129.346 49.8 131.138 47.624C131.65 47.0267 132.226 46.728 132.866 46.728ZM116.738 37.448C115.159 37.448 113.815 38.3653 112.706 40.2C111.639 42.0347 111.106 44.2533 111.106 46.856V46.984C113.623 46.3867 115.607 45.4907 117.058 44.296C118.509 43.1013 119.234 41.7147 119.234 40.136C119.234 39.3253 118.999 38.6853 118.53 38.216C118.103 37.704 117.506 37.448 116.738 37.448ZM147.943 51.976C148.412 51.5493 148.882 51.336 149.351 51.336C149.863 51.336 150.268 51.6347 150.567 52.232C150.908 52.7867 151.079 53.4693 151.079 54.28C151.079 56.072 150.439 57.5013 149.159 58.568C146.94 60.4027 144.423 61.32 141.607 61.32C137.554 61.32 134.588 59.6347 132.711 56.264C130.834 52.8507 129.895 48.4133 129.895 42.952C129.895 37.7467 130.556 31.816 131.879 25.16C133.244 18.504 135.228 12.7867 137.831 8.008C140.476 3.22933 143.612 0.839996 147.239 0.839996C149.287 0.839996 150.887 1.8 152.039 3.72C153.234 5.59733 153.831 8.30667 153.831 11.848C153.831 16.9253 152.423 22.8133 149.607 29.512C146.834 36.2107 143.036 42.824 138.215 49.352C138.514 51.1013 139.047 52.36 139.815 53.128C140.583 53.896 141.628 54.28 142.951 54.28C143.676 54.28 144.487 54.0667 145.383 53.64C146.322 53.2133 147.175 52.6587 147.943 51.976ZM145.831 7.176C144.85 7.176 143.74 8.94667 142.503 12.488C141.266 16.0293 140.178 20.424 139.239 25.672C138.3 30.92 137.788 35.9547 137.703 40.776C140.732 35.784 143.143 30.792 144.935 25.8C146.727 20.7653 147.623 16.1787 147.623 12.04C147.623 8.79733 147.026 7.176 145.831 7.176Z" fill="#6B4B3E"/>
</svg>
