<svg width="246" height="246" viewBox="0 0 246 246" fill="none" xmlns="http://www.w3.org/2000/svg">
<g clip-path="url(#clip0_131_1033)">
<path d="M19.0446 180.491H21.2937C22.3245 177.049 23.0003 173.51 23.3103 169.931C23.8003 163.303 20.5901 153.157 14.7098 149.758C8.82957 146.359 5.64443 150.562 7.61708 154.156C9.58973 157.749 16.2427 167.971 16.3307 176.766L19.0446 180.491Z" fill="#C49E85"/>
<path d="M18.5046 180.491H19.1328C19.7466 176.151 19.7466 171.746 19.1328 167.405C18.1151 158.805 15.288 154.809 12.662 152.032C12.6045 151.971 12.5252 151.936 12.4416 151.934C12.3579 151.931 12.2768 151.962 12.216 152.02C12.1552 152.077 12.1197 152.156 12.1173 152.24C12.115 152.324 12.1459 152.405 12.2034 152.466C14.7603 155.161 17.512 159.056 18.4857 167.474C19.1081 171.79 19.1144 176.173 18.5046 180.491Z" fill="white"/>
<path d="M19.2271 180.491C18.0711 175.038 12.8191 168.555 7.86234 167.437C2.11402 166.18 -0.68161 169.214 0.141374 171.834C0.964357 174.454 5.50647 175.673 9.91666 177.727C11.4017 178.414 12.7591 179.349 13.9311 180.491H19.2271Z" fill="#C49E85"/>
<path d="M17.1348 180.491H17.807C15.3758 174.378 9.84736 170.019 5.32409 169.616C5.28314 169.612 5.24174 169.616 5.20234 169.628C5.16294 169.64 5.12635 169.66 5.09471 169.686C5.06308 169.712 5.03706 169.745 5.01819 169.782C4.99932 169.818 4.98798 169.858 4.98484 169.899C4.9796 169.94 4.98289 169.982 4.9945 170.022C5.00611 170.062 5.02579 170.099 5.05231 170.13C5.07884 170.162 5.11164 170.188 5.14868 170.207C5.18571 170.225 5.22617 170.236 5.26755 170.238C9.53952 170.622 14.7601 174.718 17.1348 180.491Z" fill="white"/>
<path d="M222.027 123.014L226.732 125.483L227.128 122.537C224.797 115.966 226.713 108.515 229.233 105.411C231.752 102.308 231.268 100.027 230.357 99.0095C229.446 97.9918 225.991 97.2191 222.573 101.215C219.156 105.21 218.37 110.06 218.942 114.954C219.307 118.014 220.915 121.155 222.027 123.014Z" fill="#C49E85"/>
<path opacity="0.2" d="M222.027 123.014L226.732 125.483L227.128 122.537C224.797 115.966 226.713 108.515 229.233 105.411C231.752 102.308 231.268 100.027 230.357 99.0095C229.446 97.9918 225.991 97.2191 222.573 101.215C219.156 105.21 218.37 110.06 218.942 114.954C219.307 118.014 220.915 121.155 222.027 123.014Z" fill="black"/>
<path d="M223.967 124.032L224.897 124.522C224.888 124.504 224.878 124.488 224.866 124.472C223.534 122.889 221.812 115.136 222.535 110.594C223.427 104.984 226.304 101.321 228.767 99.7697C228.797 99.7511 228.823 99.7267 228.844 99.6978C228.864 99.669 228.879 99.6363 228.886 99.6017C228.894 99.5671 228.895 99.5313 228.888 99.4965C228.882 99.4617 228.868 99.4285 228.849 99.399C228.809 99.339 228.747 99.2968 228.677 99.2816C228.606 99.2663 228.533 99.2792 228.472 99.3173C225.959 100.932 222.918 104.72 221.995 110.512C221.329 114.74 222.661 121.437 223.967 124.032Z" fill="white"/>
<path d="M226.826 111.8C228.202 115.174 228.196 116.826 225.953 117.172C223.93 117.473 221.474 119.93 223.754 123.919L237.098 130.917C237.131 130.172 237.316 129.44 237.64 128.768C237.963 128.095 238.42 127.495 238.982 127.004C241.175 124.811 243.198 123.159 242.884 120.721C242.57 118.284 240.452 115.934 240.101 113.811C239.749 111.687 240.829 110.475 243.135 108.094C245.441 105.713 247.533 102.019 244.454 100.335C241.376 98.6515 237.852 101.535 236.382 103.476C234.911 105.418 233.567 106.272 230.671 106.109C227.775 105.945 225.45 108.427 226.826 111.8Z" fill="#C49E85"/>
<path d="M230.602 127.512C230.539 117.159 237.959 105.034 242.086 102.584C242.147 102.545 242.191 102.485 242.208 102.414C242.226 102.344 242.216 102.27 242.181 102.207C242.143 102.147 242.083 102.103 242.014 102.086C241.945 102.068 241.872 102.078 241.81 102.113C237.626 104.626 230.144 116.757 230.062 127.242L230.602 127.512Z" fill="white"/>
<path d="M232.587 116.751C232.53 116.764 232.471 116.757 232.419 116.732C232.366 116.707 232.324 116.665 232.298 116.613C231.1 114.377 230.091 112.044 229.283 109.639C229.272 109.605 229.268 109.57 229.271 109.534C229.274 109.499 229.284 109.465 229.3 109.433C229.317 109.402 229.339 109.374 229.366 109.351C229.393 109.328 229.425 109.311 229.459 109.3C229.492 109.289 229.528 109.285 229.563 109.288C229.599 109.291 229.633 109.301 229.665 109.318C229.696 109.334 229.724 109.356 229.747 109.384C229.77 109.411 229.787 109.442 229.798 109.476C230.599 111.847 231.595 114.148 232.776 116.355C232.809 116.419 232.816 116.494 232.795 116.563C232.774 116.633 232.726 116.691 232.663 116.726L232.587 116.751Z" fill="white"/>
<path d="M230.803 123.096C230.752 123.105 230.699 123.101 230.65 123.082C230.601 123.063 230.558 123.031 230.527 122.989C230.485 122.929 230.469 122.855 230.482 122.783C230.495 122.712 230.536 122.648 230.596 122.606C233.301 120.712 236.583 119.823 239.875 120.093C239.947 120.102 240.012 120.139 240.056 120.197C240.1 120.254 240.12 120.326 240.11 120.398C240.101 120.469 240.064 120.534 240.007 120.579C239.95 120.623 239.877 120.642 239.806 120.633C236.654 120.393 233.516 121.238 230.91 123.027C230.879 123.057 230.843 123.08 230.803 123.096Z" fill="white"/>
<path d="M151.959 59.8519L136.649 51.0127L121.346 59.8519L136.649 68.6911L151.959 59.8519Z" fill="#C49E85"/>
<path d="M136.65 86.3758L151.96 77.5366V59.8519L136.65 68.6911V86.3758Z" fill="#B08E78"/>
<path d="M139.603 80.5081C139.522 80.5096 139.442 80.4901 139.37 80.4516C139.272 80.3802 139.195 80.285 139.144 80.175C139.093 80.0651 139.072 79.944 139.081 79.8233V77.9386V77.8004H139.175L140.646 76.9398V79.0318C140.643 79.3012 140.577 79.5662 140.451 79.8045C140.325 80.0428 140.144 80.2475 139.923 80.4013C139.828 80.4655 139.717 80.5024 139.603 80.5081ZM139.32 78.0769V79.8108C139.309 79.8915 139.32 79.9735 139.349 80.0493C139.379 80.125 139.427 80.1921 139.49 80.2443C139.54 80.267 139.597 80.2755 139.652 80.2689C139.707 80.2622 139.76 80.2407 139.804 80.2066C139.992 80.0753 140.147 79.9018 140.256 79.7C140.365 79.4982 140.425 79.2736 140.432 79.0443V78.8936H139.885L139.779 78.1585L139.32 78.0769ZM140.074 78.6548H140.413V77.367L139.534 77.8758L139.967 77.9575L140.074 78.6548Z" fill="white"/>
<path d="M139.867 82.0033C139.835 82.0033 139.805 81.9907 139.782 81.9684C139.76 81.946 139.747 81.9156 139.747 81.884V80.3134C139.746 80.2975 139.749 80.2815 139.754 80.2666C139.76 80.2517 139.769 80.2382 139.78 80.2269C139.791 80.2157 139.805 80.2069 139.82 80.2012C139.835 80.1956 139.851 80.1931 139.867 80.194C139.898 80.194 139.929 80.2066 139.951 80.229C139.973 80.2514 139.986 80.2817 139.986 80.3134V81.8588C139.989 81.8763 139.988 81.8942 139.983 81.9112C139.978 81.9283 139.97 81.9442 139.959 81.9578C139.947 81.9714 139.933 81.9825 139.917 81.9904C139.902 81.9982 139.884 82.0026 139.867 82.0033Z" fill="white"/>
<path d="M139.182 82.3991C139.161 82.399 139.141 82.393 139.123 82.3819C139.105 82.3708 139.091 82.355 139.081 82.3363C139.073 82.3234 139.067 82.3088 139.064 82.2935C139.062 82.2782 139.063 82.2625 139.067 82.2476C139.071 82.2326 139.079 82.2187 139.089 82.2069C139.099 82.1951 139.111 82.1857 139.125 82.1792L140.489 81.3877C140.502 81.3798 140.517 81.3747 140.533 81.3726C140.548 81.3706 140.564 81.3716 140.579 81.3757C140.595 81.3798 140.609 81.3868 140.621 81.3964C140.634 81.406 140.644 81.418 140.652 81.4316C140.666 81.4594 140.67 81.4916 140.662 81.5218C140.653 81.552 140.634 81.5781 140.608 81.595L139.238 82.3803L139.182 82.3991Z" fill="white"/>
<path d="M144.057 79.6851C144.014 79.6983 143.968 79.6983 143.925 79.6851C143.879 79.6543 143.842 79.612 143.818 79.5623C143.793 79.5127 143.783 79.4576 143.786 79.4024V79.082C143.786 79.0667 143.788 79.0513 143.793 79.0368C143.798 79.0224 143.807 79.0092 143.817 78.998C143.828 78.9868 143.841 78.9779 143.855 78.9718C143.869 78.9658 143.884 78.9627 143.899 78.9627C143.915 78.9618 143.931 78.9642 143.946 78.9699C143.961 78.9756 143.975 78.9843 143.986 78.9956C143.997 79.0069 144.006 79.0204 144.012 79.0353C144.017 79.0502 144.02 79.0661 144.019 79.082V79.3459C144.019 79.3962 144.019 79.4213 144.019 79.4213C144.019 79.4213 144.057 79.4213 144.094 79.4213C144.167 79.3549 144.225 79.2732 144.263 79.182C144.301 79.0908 144.319 78.9923 144.314 78.8936V76.833C144.314 76.8176 144.317 76.8023 144.323 76.7882C144.329 76.7741 144.338 76.7613 144.349 76.7507C144.361 76.7401 144.374 76.7319 144.388 76.7266C144.403 76.7213 144.418 76.719 144.433 76.7199C144.463 76.7199 144.492 76.7318 144.513 76.753C144.535 76.7742 144.547 76.803 144.547 76.833V78.9313C144.551 79.0711 144.524 79.2102 144.466 79.3377C144.408 79.4651 144.322 79.5776 144.214 79.6663C144.163 79.6825 144.11 79.6888 144.057 79.6851Z" fill="white"/>
<path d="M142.812 77.857V77.6559C142.842 77.1327 142.993 76.6237 143.255 76.1698C143.517 75.7159 143.882 75.3298 144.32 75.0425C144.477 74.9105 144.671 74.83 144.875 74.8119C145.079 74.7937 145.284 74.8388 145.461 74.941C145.639 75.0432 145.781 75.1976 145.868 75.3832C145.955 75.5688 145.983 75.7767 145.947 75.9786V76.0477L142.812 77.857ZM145.024 75.0676C144.816 75.0741 144.614 75.1371 144.44 75.2498C144.067 75.4959 143.75 75.8188 143.512 76.1969C143.274 76.575 143.119 76.9996 143.058 77.4423L145.709 75.9157C145.719 75.7675 145.69 75.6191 145.627 75.4849C145.563 75.3507 145.466 75.2351 145.344 75.1493C145.247 75.094 145.136 75.0658 145.024 75.0676Z" fill="white"/>
<path d="M148.26 77.2727C148.229 77.2728 148.199 77.2611 148.177 77.24C148.155 77.219 148.142 77.1902 148.14 77.1597V73.1515C148.14 73.1199 148.153 73.0895 148.175 73.0671C148.197 73.0447 148.228 73.0322 148.26 73.0322C148.291 73.0322 148.322 73.0447 148.344 73.0671C148.366 73.0895 148.379 73.1199 148.379 73.1515V77.1597C148.377 77.1902 148.364 77.219 148.342 77.24C148.32 77.2611 148.29 77.2728 148.26 77.2727Z" fill="white"/>
<path d="M147.939 74.0625H147.895C147.881 74.0563 147.868 74.0473 147.857 74.0361C147.846 74.0249 147.837 74.0116 147.831 73.997C147.825 73.9824 147.823 73.9668 147.823 73.9511C147.823 73.9354 147.826 73.9198 147.833 73.9054L148.253 72.9379L148.718 73.4782C148.728 73.4898 148.736 73.5031 148.74 73.5176C148.745 73.5321 148.747 73.5473 148.746 73.5625C148.745 73.5776 148.741 73.5924 148.734 73.606C148.727 73.6196 148.717 73.6316 148.706 73.6415C148.694 73.6514 148.681 73.659 148.666 73.6637C148.652 73.6684 148.637 73.6703 148.621 73.6691C148.606 73.6679 148.592 73.6638 148.578 73.6569C148.564 73.65 148.552 73.6405 148.542 73.629L148.316 73.3777L148.046 74.0059C148.035 74.0245 148.02 74.0396 148.001 74.0497C147.982 74.0597 147.961 74.0641 147.939 74.0625Z" fill="white"/>
<path d="M149.372 76.6571C149.341 76.6554 149.312 76.6422 149.291 76.62C149.27 76.5977 149.258 76.5683 149.259 76.5377V72.5296C149.254 72.5121 149.254 72.4938 149.258 72.4763C149.262 72.4587 149.27 72.4423 149.281 72.4282C149.292 72.4141 149.307 72.4027 149.323 72.3949C149.339 72.3871 149.357 72.383 149.375 72.383C149.393 72.383 149.41 72.3871 149.427 72.3949C149.443 72.4027 149.457 72.4141 149.468 72.4282C149.479 72.4423 149.487 72.4587 149.491 72.4763C149.495 72.4938 149.495 72.5121 149.491 72.5296V76.5377C149.491 76.5693 149.478 76.5997 149.456 76.6221C149.434 76.6445 149.403 76.6571 149.372 76.6571Z" fill="white"/>
<path d="M149.027 73.4405H148.983C148.968 73.4344 148.955 73.4254 148.944 73.4142C148.933 73.4029 148.925 73.3896 148.919 73.375C148.913 73.3604 148.91 73.3448 148.91 73.3291C148.91 73.3134 148.914 73.2979 148.92 73.2835L149.341 72.316L149.806 72.8563C149.826 72.8784 149.838 72.9076 149.838 72.9379C149.838 72.9683 149.826 72.9975 149.806 73.0196C149.783 73.0408 149.752 73.0525 149.721 73.0525C149.69 73.0525 149.659 73.0408 149.636 73.0196L149.416 72.762L149.146 73.3903C149.133 73.4092 149.115 73.4241 149.094 73.433C149.073 73.4419 149.049 73.4445 149.027 73.4405Z" fill="white"/>
<path d="M136.65 86.3758L121.34 77.5366L121.346 59.8519L136.65 68.6911V86.3758Z" fill="#9D7E6A"/>
<path d="M129.827 64.7521L145.125 55.9066L143.397 54.9077L128.093 63.7532L129.827 64.7521Z" fill="white"/>
<path d="M123.664 69.9915L129.148 73.1327C129.464 73.3405 129.726 73.6191 129.915 73.9463C130.104 74.2735 130.213 74.6403 130.235 75.0174V78.3973C130.235 79.0946 129.745 79.3773 129.148 79.0255L123.664 75.8844C123.348 75.6769 123.085 75.3984 122.897 75.0711C122.708 74.7438 122.599 74.3769 122.577 73.9997V70.6198C122.577 69.9224 123.067 69.646 123.664 69.9915Z" fill="#C49E85"/>
<path d="M123.244 70.8334L123.451 70.959V74.7095L123.244 74.5902V70.8334Z" fill="#C49E85"/>
<path d="M124.091 71.3234L124.449 71.537V75.2875L124.091 75.0802V71.3234Z" fill="#C49E85"/>
<path d="M124.939 71.8134L125.147 71.9328V75.6896L124.939 75.5702V71.8134Z" fill="#C49E85"/>
<path d="M125.574 72.1778L125.995 72.4228V76.1796L125.574 75.9283V72.1778Z" fill="#C49E85"/>
<path d="M126.63 72.7934L126.843 72.9128V76.6696L126.63 76.544V72.7934Z" fill="#C49E85"/>
<path d="M127.245 73.1389L127.685 73.4028V77.1533L127.239 76.8895L127.245 73.1389Z" fill="#C49E85"/>
<path d="M128.326 73.7735L128.533 73.8928V77.6434L128.326 77.524V73.7735Z" fill="#C49E85"/>
<path d="M128.81 74.0436L128.916 74.1064V77.857L128.81 77.8004V74.0436Z" fill="#C49E85"/>
<path d="M127.943 73.5662L128.043 73.629V77.3795L127.943 77.323V73.5662Z" fill="#C49E85"/>
<path d="M126.234 72.5673L126.334 72.6238V76.3806L126.234 76.3178V72.5673Z" fill="#C49E85"/>
<path d="M125.298 72.027L125.405 72.0898V75.8466L125.298 75.7838V72.027Z" fill="#C49E85"/>
<path d="M124.626 71.6563L124.733 71.7192V75.476L124.626 75.4132V71.6563Z" fill="#C49E85"/>
<path d="M123.715 71.1035L123.822 71.1663V74.9231L123.715 74.8603V71.1035Z" fill="#C49E85"/>
<path d="M129.174 74.2572L129.381 74.3766V78.1334L129.174 78.014V74.2572Z" fill="#C49E85"/>
<path d="M131.548 56.9055L113.681 46.5962L95.8208 56.9055L113.681 67.221L131.548 56.9055Z" fill="#C49E85"/>
<path d="M106.024 62.7983L123.891 52.489L122.157 51.4901L104.296 61.7994L106.024 62.7983Z" fill="white"/>
<path d="M113.682 99.6315L131.549 89.3222V56.9054L113.682 67.221V99.6315Z" fill="#B08E78"/>
<path d="M116.635 93.7952C116.553 93.7967 116.472 93.7749 116.402 93.7324C116.303 93.6623 116.224 93.5673 116.174 93.457C116.123 93.3467 116.102 93.225 116.113 93.1042V91.2195V91.0813H116.214L117.678 90.2206V92.3126C117.675 92.5818 117.607 92.8465 117.482 93.0846C117.356 93.3228 117.176 93.5276 116.955 93.6821C116.861 93.7486 116.75 93.7877 116.635 93.7952ZM116.352 91.364V93.0979C116.342 93.1786 116.352 93.2606 116.381 93.3364C116.411 93.4121 116.459 93.4792 116.522 93.5314C116.573 93.5541 116.629 93.5626 116.684 93.556C116.739 93.5493 116.792 93.5278 116.836 93.4937C117.024 93.3624 117.179 93.1889 117.288 92.9871C117.397 92.7853 117.457 92.5607 117.464 92.3314V92.1807H116.917L116.811 91.4456L116.352 91.364ZM117.106 91.9419H117.477V90.6541L116.597 91.1692L117.031 91.2446L117.106 91.9419Z" fill="white"/>
<path d="M116.898 95.2653C116.867 95.2653 116.836 95.2527 116.814 95.2303C116.791 95.2079 116.779 95.1776 116.779 95.1459V93.5691C116.779 93.5537 116.782 93.5384 116.788 93.5243C116.794 93.5101 116.803 93.4974 116.814 93.4868C116.825 93.4762 116.839 93.468 116.853 93.4627C116.867 93.4574 116.883 93.4551 116.898 93.456C116.929 93.4559 116.958 93.4676 116.98 93.4887C117.003 93.5097 117.016 93.5385 117.018 93.5691V95.1459C117.016 95.1771 117.003 95.2066 116.981 95.2286C116.959 95.2507 116.929 95.2638 116.898 95.2653Z" fill="white"/>
<path d="M116.22 95.6799C116.2 95.6804 116.18 95.6754 116.162 95.6654C116.144 95.6555 116.13 95.6409 116.119 95.6234C116.105 95.5956 116.102 95.5634 116.11 95.5332C116.118 95.503 116.137 95.4769 116.163 95.46L117.527 94.6747C117.54 94.6669 117.555 94.6618 117.571 94.6597C117.586 94.6577 117.602 94.6587 117.617 94.6628C117.633 94.6669 117.647 94.6739 117.659 94.6835C117.672 94.6931 117.682 94.7051 117.69 94.7187C117.698 94.7318 117.703 94.7464 117.705 94.7615C117.707 94.7766 117.706 94.7919 117.701 94.8066C117.697 94.8213 117.69 94.835 117.681 94.8468C117.671 94.8587 117.659 94.8686 117.646 94.8758L116.276 95.6673C116.259 95.6774 116.24 95.6818 116.22 95.6799Z" fill="white"/>
<path d="M121.089 92.9471C121.043 92.9472 120.998 92.9365 120.957 92.9157C120.911 92.8849 120.874 92.8425 120.85 92.7929C120.826 92.7432 120.815 92.6881 120.819 92.633V92.3063C120.819 92.2909 120.822 92.2757 120.828 92.2615C120.834 92.2474 120.843 92.2346 120.854 92.224C120.865 92.2134 120.878 92.2052 120.893 92.1999C120.907 92.1946 120.923 92.1924 120.938 92.1932C120.953 92.1932 120.968 92.1961 120.981 92.2018C120.995 92.2075 121.007 92.2158 121.018 92.2263C121.028 92.2368 121.037 92.2493 121.042 92.263C121.048 92.2767 121.051 92.2914 121.051 92.3063V92.633C121.051 92.6769 121.051 92.7021 121.051 92.7084C121.051 92.7146 121.089 92.7084 121.126 92.7084C121.2 92.6407 121.257 92.5579 121.295 92.4657C121.333 92.3734 121.351 92.274 121.346 92.1744V90.0823C121.346 90.0507 121.359 90.0203 121.381 89.9979C121.404 89.9756 121.434 89.963 121.466 89.963C121.497 89.9645 121.526 89.9776 121.548 89.9996C121.57 90.0217 121.584 90.0512 121.585 90.0823V92.1744C121.591 92.315 121.563 92.4551 121.504 92.5829C121.445 92.7107 121.357 92.8226 121.246 92.9094C121.197 92.9338 121.143 92.9466 121.089 92.9471Z" fill="white"/>
<path d="M119.845 91.1189V90.9116C119.875 90.3894 120.027 89.8814 120.289 89.4286C120.551 88.9758 120.915 88.5907 121.353 88.3045C121.51 88.1725 121.703 88.092 121.908 88.0738C122.112 88.0557 122.317 88.1007 122.494 88.203C122.672 88.3052 122.814 88.4595 122.901 88.6451C122.988 88.8308 123.015 89.0386 122.98 89.2405V89.3096L119.845 91.1189ZM122.057 88.3233C121.849 88.3328 121.648 88.3956 121.472 88.5055C121.099 88.7523 120.782 89.0761 120.543 89.4554C120.305 89.8346 120.151 90.2604 120.09 90.7043L122.741 89.1777C122.751 89.0286 122.722 88.8796 122.658 88.7445C122.595 88.6094 122.498 88.4926 122.377 88.405C122.279 88.3515 122.169 88.3234 122.057 88.3233Z" fill="white"/>
<path d="M125.317 90.5347C125.285 90.5347 125.255 90.5221 125.232 90.4997C125.21 90.4773 125.197 90.447 125.197 90.4153V86.4072C125.197 86.3756 125.21 86.3452 125.232 86.3228C125.255 86.3004 125.285 86.2878 125.317 86.2878C125.348 86.2878 125.379 86.3004 125.401 86.3228C125.423 86.3452 125.436 86.3756 125.436 86.4072V90.4153C125.436 90.447 125.423 90.4773 125.401 90.4997C125.379 90.5221 125.348 90.5347 125.317 90.5347Z" fill="white"/>
<path d="M124.971 87.3244H124.927C124.913 87.3189 124.9 87.3106 124.889 87.3C124.878 87.2893 124.869 87.2766 124.863 87.2625C124.857 87.2484 124.854 87.2333 124.854 87.218C124.855 87.2027 124.858 87.1877 124.864 87.1737L125.285 86.2062L125.75 86.7465C125.77 86.7698 125.78 86.8001 125.777 86.8307C125.775 86.8614 125.761 86.8898 125.737 86.9098C125.714 86.9298 125.684 86.9397 125.653 86.9374C125.622 86.935 125.594 86.9206 125.574 86.8973L125.348 86.6397L125.078 87.2679C125.067 87.2865 125.051 87.3016 125.032 87.3116C125.013 87.3216 124.992 87.3261 124.971 87.3244Z" fill="white"/>
<path d="M126.404 89.9128C126.374 89.9128 126.345 89.9008 126.324 89.8796C126.303 89.8584 126.291 89.8297 126.291 89.7997V85.7916C126.29 85.7762 126.292 85.7608 126.297 85.7464C126.303 85.7319 126.311 85.7187 126.322 85.7075C126.332 85.6963 126.345 85.6874 126.359 85.6814C126.373 85.6753 126.388 85.6722 126.404 85.6722C126.42 85.6713 126.436 85.6737 126.451 85.6794C126.465 85.6851 126.479 85.6939 126.49 85.7051C126.501 85.7164 126.51 85.7299 126.516 85.7448C126.522 85.7597 126.524 85.7756 126.523 85.7916V89.7997C126.523 89.8151 126.52 89.8303 126.514 89.8445C126.508 89.8586 126.499 89.8714 126.488 89.8819C126.477 89.8925 126.463 89.9007 126.449 89.906C126.435 89.9113 126.419 89.9136 126.404 89.9128Z" fill="white"/>
<path d="M126.064 86.7025H126.014C125.986 86.6888 125.963 86.6652 125.952 86.6361C125.94 86.6071 125.94 86.5747 125.951 86.5454L126.372 85.5779L126.843 86.1182C126.862 86.141 126.873 86.1699 126.873 86.1999C126.873 86.2298 126.862 86.2588 126.843 86.2816C126.832 86.2928 126.819 86.3017 126.804 86.3077C126.789 86.3138 126.774 86.3169 126.758 86.3169C126.742 86.3169 126.727 86.3138 126.712 86.3077C126.698 86.3017 126.684 86.2928 126.673 86.2816L126.453 86.024L126.183 86.6522C126.171 86.6718 126.153 86.6871 126.132 86.6961C126.11 86.7051 126.087 86.7073 126.064 86.7025Z" fill="white"/>
<path d="M113.681 99.6315L95.8208 89.3222V56.9054L113.681 67.221V99.6315Z" fill="#9D7E6A"/>
<path d="M99.4526 82.5813L104.931 85.7224C105.248 85.9292 105.512 86.2074 105.702 86.5347C105.891 86.8621 106.002 87.2294 106.024 87.6071V90.9933C106.024 91.6844 105.534 91.9671 104.931 91.6215L99.4526 88.4804C99.1357 88.274 98.8722 87.9958 98.6833 87.6683C98.4944 87.3407 98.3856 86.9732 98.3657 86.5957V83.2158C98.3657 82.4871 98.8557 82.2358 99.4526 82.5813Z" fill="#F5F5F5"/>
<path d="M99.0317 83.4231L99.2391 83.5488V87.2993L99.0317 87.1799V83.4231Z" fill="#E0E0E0"/>
<path d="M99.8799 83.9131L100.238 84.1267V87.8836L99.8799 87.67V83.9131Z" fill="#E0E0E0"/>
<path d="M100.721 84.4032L100.935 84.5225L100.929 88.2793L100.721 88.16V84.4032Z" fill="#E0E0E0"/>
<path d="M101.362 84.7675L101.777 85.0125V88.7693L101.362 88.5181V84.7675Z" fill="#E0E0E0"/>
<path d="M102.418 85.3832L102.625 85.5026V89.2594L102.418 89.1338V85.3832Z" fill="#E0E0E0"/>
<path d="M103.027 85.7287L103.473 85.9926V89.7431L103.027 89.4793V85.7287Z" fill="#E0E0E0"/>
<path d="M104.114 86.3569L104.322 86.4826V90.2331L104.114 90.1138V86.3569Z" fill="#E0E0E0"/>
<path d="M104.598 86.6334L104.704 86.6962V90.453L104.598 90.3902V86.6334Z" fill="#E0E0E0"/>
<path d="M103.731 86.1559L103.831 86.2188V89.9693L103.731 89.9128V86.1559Z" fill="#E0E0E0"/>
<path d="M102.022 85.157L102.122 85.2136V88.9704L102.022 88.9076V85.157Z" fill="#E0E0E0"/>
<path d="M101.086 84.6168L101.187 84.6796V88.4364L101.086 88.3736V84.6168Z" fill="#E0E0E0"/>
<path d="M100.414 84.2461L100.521 84.3089V88.0657L100.414 88.0029V84.2461Z" fill="#E0E0E0"/>
<path d="M99.5029 83.6933L99.6097 83.7561V87.5129L99.5029 87.4501V83.6933Z" fill="#E0E0E0"/>
<path d="M104.962 86.847L105.169 86.9664V90.7232L104.962 90.6038V86.847Z" fill="#E0E0E0"/>
<path d="M104.296 65.9834L106.024 66.9823V62.7983L104.296 61.7994V65.9834Z" fill="#F0F0F0"/>
<path d="M77.9545 90.7923L65.1951 83.4294L47.3345 93.7387L60.0939 101.108L77.9545 90.7923Z" fill="#C49E85"/>
<path d="M60.0938 130.572L77.9544 120.263V90.7923L60.0938 101.108V130.572Z" fill="#B08E78"/>
<path d="M63.0398 124.711C62.9599 124.712 62.8813 124.69 62.8136 124.648C62.715 124.577 62.6365 124.482 62.5858 124.372C62.5351 124.262 62.514 124.14 62.5246 124.019V122.135V121.997H62.6189L64.0889 121.136V123.228C64.0859 123.497 64.0187 123.762 63.8931 124C63.7675 124.238 63.587 124.443 63.3665 124.597C63.2694 124.663 63.1568 124.702 63.0398 124.711ZM62.7634 122.279V124.013C62.7517 124.094 62.7612 124.176 62.7909 124.252C62.8207 124.328 62.8696 124.395 62.933 124.447C62.9844 124.467 63.04 124.474 63.0948 124.467C63.1497 124.461 63.202 124.441 63.2471 124.409C63.4353 124.278 63.5901 124.104 63.6992 123.902C63.8082 123.701 63.8686 123.476 63.8753 123.247V123.096H63.3288L63.222 122.361L62.7634 122.279ZM63.5173 122.857H63.8565V121.563L62.977 122.078L63.4105 122.154L63.5173 122.857Z" fill="white"/>
<path d="M63.3098 126.206C63.2781 126.206 63.2478 126.193 63.2254 126.171C63.203 126.148 63.1904 126.118 63.1904 126.086V124.509C63.1904 124.494 63.1935 124.479 63.1996 124.465C63.2057 124.451 63.2146 124.438 63.2257 124.427C63.2369 124.417 63.2501 124.408 63.2646 124.403C63.279 124.398 63.2944 124.396 63.3098 124.396C63.3398 124.396 63.3685 124.408 63.3898 124.43C63.411 124.451 63.4229 124.479 63.4229 124.509V126.086C63.4229 126.117 63.4112 126.146 63.3902 126.169C63.3691 126.191 63.3404 126.204 63.3098 126.206Z" fill="white"/>
<path d="M62.6252 126.595C62.6048 126.596 62.5844 126.592 62.5666 126.582C62.5488 126.572 62.5342 126.557 62.5247 126.539C62.5156 126.526 62.5094 126.511 62.5064 126.495C62.5034 126.48 62.5037 126.464 62.5073 126.449C62.5108 126.433 62.5176 126.419 62.5271 126.406C62.5365 126.393 62.5486 126.383 62.5624 126.375L63.9319 125.59C63.9455 125.582 63.9605 125.577 63.9761 125.575C63.9917 125.573 64.0075 125.574 64.0227 125.578C64.0379 125.582 64.0521 125.589 64.0645 125.599C64.077 125.608 64.0874 125.62 64.0952 125.634C64.103 125.647 64.108 125.662 64.1099 125.677C64.1119 125.692 64.1108 125.707 64.1067 125.722C64.1026 125.737 64.0956 125.75 64.086 125.762C64.0765 125.774 64.0647 125.784 64.0513 125.791L62.6817 126.583C62.6647 126.593 62.6449 126.597 62.6252 126.595Z" fill="white"/>
<path d="M67.5009 123.888C67.455 123.888 67.4098 123.877 67.369 123.856C67.3231 123.825 67.2862 123.783 67.2619 123.733C67.2376 123.684 67.2269 123.629 67.2307 123.573V123.247C67.2307 123.217 67.2427 123.188 67.2639 123.167C67.2851 123.146 67.3138 123.134 67.3438 123.134C67.3592 123.133 67.3746 123.135 67.389 123.14C67.4035 123.146 67.4167 123.154 67.4279 123.164C67.4391 123.175 67.448 123.188 67.454 123.202C67.4601 123.216 67.4632 123.231 67.4632 123.247V123.573C67.4632 123.617 67.4632 123.643 67.4632 123.649C67.4632 123.655 67.5009 123.649 67.5386 123.649C67.6106 123.58 67.6674 123.497 67.7053 123.405C67.7432 123.313 67.7613 123.214 67.7585 123.115V121.023C67.7544 121.005 67.7543 120.987 67.7582 120.97C67.7621 120.952 67.77 120.936 67.7812 120.921C67.7923 120.907 67.8065 120.896 67.8227 120.888C67.8389 120.88 67.8567 120.876 67.8747 120.876C67.8927 120.876 67.9104 120.88 67.9266 120.888C67.9428 120.896 67.957 120.907 67.9682 120.921C67.9794 120.936 67.9872 120.952 67.9912 120.97C67.9951 120.987 67.995 121.005 67.9909 121.023V123.115C67.9961 123.255 67.9687 123.394 67.9109 123.521C67.8531 123.649 67.7665 123.761 67.6579 123.85C67.6091 123.874 67.5554 123.887 67.5009 123.888Z" fill="white"/>
<path d="M66.2568 122.066V121.858C66.2866 121.336 66.4385 120.828 66.7004 120.375C66.9623 119.922 67.3268 119.537 67.7646 119.251C67.9206 119.118 68.1142 119.036 68.3186 119.017C68.523 118.998 68.7282 119.043 68.906 119.146C69.0837 119.249 69.2253 119.404 69.3112 119.59C69.397 119.777 69.423 119.985 69.3854 120.187V120.256L66.2568 122.066ZM68.4682 119.27C68.261 119.28 68.0598 119.342 67.884 119.452C67.5101 119.699 67.1934 120.023 66.955 120.402C66.7166 120.781 66.5621 121.207 66.5018 121.651L69.153 120.118C69.1618 119.97 69.1331 119.822 69.0694 119.688C69.0056 119.554 68.9091 119.438 68.7886 119.352C68.6927 119.297 68.5848 119.267 68.4745 119.264L68.4682 119.27Z" fill="white"/>
<path d="M71.7282 121.475C71.6966 121.475 71.6662 121.463 71.6438 121.44C71.6215 121.418 71.6089 121.387 71.6089 121.356V117.348C71.6089 117.316 71.6215 117.286 71.6438 117.263C71.6662 117.241 71.6966 117.228 71.7282 117.228C71.7599 117.228 71.7903 117.241 71.8126 117.263C71.835 117.286 71.8476 117.316 71.8476 117.348V121.356C71.8476 121.387 71.835 121.418 71.8126 121.44C71.7903 121.463 71.7599 121.475 71.7282 121.475Z" fill="white"/>
<path d="M71.3829 118.296H71.3389C71.3247 118.291 71.3117 118.282 71.3008 118.272C71.2898 118.261 71.2812 118.248 71.2753 118.234C71.2694 118.22 71.2665 118.205 71.2666 118.19C71.2667 118.175 71.27 118.159 71.2761 118.145L71.697 117.178L72.1619 117.718C72.1819 117.742 72.1918 117.772 72.1894 117.803C72.1871 117.833 72.1726 117.862 72.1493 117.882C72.1378 117.892 72.1244 117.899 72.1099 117.904C72.0955 117.909 72.0802 117.91 72.065 117.909C72.0344 117.907 72.006 117.892 71.986 117.869L71.7598 117.611L71.4897 118.24C71.479 118.258 71.4634 118.273 71.4445 118.283C71.4256 118.293 71.4042 118.298 71.3829 118.296Z" fill="white"/>
<path d="M72.8152 120.853C72.7846 120.853 72.7551 120.841 72.7329 120.82C72.7107 120.799 72.6974 120.771 72.6958 120.74V116.732C72.6958 116.7 72.7084 116.67 72.7308 116.648C72.7531 116.625 72.7835 116.613 72.8152 116.613C72.8311 116.612 72.847 116.614 72.8619 116.62C72.8768 116.625 72.8903 116.634 72.9016 116.646C72.9129 116.657 72.9216 116.67 72.9273 116.685C72.933 116.7 72.9354 116.716 72.9345 116.732V120.74C72.9346 120.755 72.9314 120.771 72.9254 120.785C72.9193 120.799 72.9104 120.812 72.8992 120.822C72.888 120.833 72.8748 120.841 72.8604 120.846C72.8459 120.852 72.8305 120.854 72.8152 120.853Z" fill="white"/>
<path d="M72.4698 117.668C72.4556 117.673 72.44 117.673 72.4258 117.668C72.4116 117.663 72.3986 117.654 72.3877 117.644C72.3767 117.633 72.3681 117.62 72.3622 117.606C72.3563 117.592 72.3534 117.577 72.3535 117.562C72.3537 117.546 72.3569 117.531 72.363 117.517L72.7839 116.55L73.2488 117.09C73.2696 117.112 73.2811 117.141 73.2811 117.172C73.2811 117.202 73.2696 117.231 73.2488 117.253C73.2377 117.265 73.2245 117.273 73.2099 117.28C73.1954 117.286 73.1798 117.289 73.164 117.289C73.1482 117.289 73.1326 117.286 73.118 117.28C73.1035 117.273 73.0903 117.265 73.0792 117.253L72.8593 116.996L72.5892 117.624C72.5754 117.642 72.5569 117.655 72.5358 117.663C72.5147 117.671 72.4918 117.673 72.4698 117.668Z" fill="white"/>
<path d="M60.0939 130.572L47.3345 123.209V93.7387L60.0939 101.108V130.572Z" fill="#9D7E6A"/>
<path d="M53.2588 101.347L54.9864 102.345V98.1614L53.2588 97.1625V101.347Z" fill="#F5F5F5"/>
<path d="M54.9864 98.1614L72.8533 87.8459L71.1194 86.847L53.2588 97.1625L54.9864 98.1614Z" fill="white"/>
<path d="M54.9862 115.84L32.0243 102.584L9.05615 115.84L32.0243 129.102L54.9862 115.84Z" fill="#C49E85"/>
<path d="M32.0239 146.78L54.9858 133.525V115.84L32.0239 129.102V146.78Z" fill="#B08E78"/>
<path d="M34.9707 140.913C34.8912 140.911 34.8134 140.889 34.7445 140.85C34.6463 140.779 34.5681 140.684 34.5175 140.574C34.4669 140.464 34.4455 140.342 34.4555 140.222V138.337V138.199H34.5498L36.0198 137.332V139.43C36.0157 139.698 35.9481 139.961 35.8226 140.198C35.697 140.435 35.517 140.639 35.2974 140.793C35.2007 140.861 35.0881 140.902 34.9707 140.913ZM34.688 138.481V140.215C34.6768 140.295 34.6866 140.376 34.7163 140.451C34.746 140.526 34.7947 140.592 34.8576 140.642C34.909 140.666 34.9658 140.675 35.022 140.67C35.0783 140.664 35.1321 140.644 35.178 140.611C35.3654 140.479 35.5197 140.305 35.6287 140.104C35.7377 139.902 35.7985 139.678 35.8062 139.449V139.292H35.2408L35.134 138.557L34.688 138.481ZM35.4418 139.059H35.8062V137.771L34.933 138.287L35.3665 138.362L35.4418 139.059Z" fill="white"/>
<path d="M35.2344 142.408C35.2195 142.408 35.2048 142.405 35.1911 142.399C35.1774 142.393 35.1649 142.385 35.1544 142.375C35.1439 142.364 35.1356 142.352 35.1299 142.338C35.1242 142.324 35.1213 142.31 35.1213 142.295V140.718C35.1172 140.7 35.1171 140.682 35.121 140.665C35.125 140.647 35.1328 140.631 35.144 140.616C35.1552 140.602 35.1694 140.591 35.1856 140.583C35.2018 140.575 35.2195 140.571 35.2375 140.571C35.2555 140.571 35.2733 140.575 35.2895 140.583C35.3057 140.591 35.3199 140.602 35.3311 140.616C35.3422 140.631 35.3501 140.647 35.354 140.665C35.3579 140.682 35.3578 140.7 35.3537 140.718V142.295C35.3538 142.31 35.3507 142.325 35.3446 142.339C35.3385 142.354 35.3296 142.366 35.3184 142.377C35.3073 142.388 35.294 142.396 35.2796 142.401C35.2651 142.406 35.2498 142.409 35.2344 142.408Z" fill="white"/>
<path d="M34.5499 142.797C34.5247 142.796 34.5007 142.786 34.4813 142.77C34.4619 142.754 34.448 142.732 34.4417 142.708C34.4355 142.683 34.4371 142.658 34.4464 142.634C34.4556 142.611 34.4721 142.591 34.4933 142.577L35.8629 141.792C35.8753 141.783 35.8896 141.777 35.9046 141.774C35.9196 141.771 35.9351 141.771 35.95 141.775C35.9649 141.779 35.9789 141.785 35.9909 141.795C36.003 141.804 36.0129 141.816 36.0199 141.83C36.029 141.843 36.0352 141.857 36.0382 141.873C36.0412 141.888 36.0409 141.904 36.0373 141.92C36.0338 141.935 36.027 141.95 36.0175 141.962C36.0081 141.975 35.996 141.985 35.9823 141.993L34.6127 142.797H34.5499Z" fill="white"/>
<path d="M39.4249 140.096C39.3835 140.105 39.3406 140.105 39.2992 140.096C39.2512 140.065 39.2124 140.022 39.187 139.971C39.1615 139.92 39.1504 139.864 39.1547 139.807V139.486C39.1547 139.455 39.1673 139.424 39.1897 139.402C39.2121 139.38 39.2424 139.367 39.2741 139.367C39.3057 139.367 39.3361 139.38 39.3585 139.402C39.3809 139.424 39.3935 139.455 39.3935 139.486V139.807C39.3848 139.833 39.3848 139.862 39.3935 139.889C39.3935 139.889 39.4311 139.889 39.4751 139.889C39.546 139.819 39.6016 139.736 39.6384 139.644C39.6752 139.552 39.6923 139.454 39.6887 139.355V137.263C39.6902 137.231 39.7033 137.202 39.7254 137.18C39.7474 137.158 39.7769 137.145 39.8081 137.143C39.8397 137.143 39.8701 137.156 39.8925 137.178C39.9149 137.201 39.9275 137.231 39.9275 137.263V139.355C39.9326 139.494 39.9052 139.634 39.8475 139.761C39.7897 139.889 39.7031 140.001 39.5945 140.09C39.5392 140.105 39.4811 140.107 39.4249 140.096Z" fill="white"/>
<path d="M38.187 138.268V138.06C38.2143 137.538 38.3652 137.029 38.6273 136.575C38.8894 136.122 39.2552 135.738 39.6948 135.453C39.8508 135.32 40.0444 135.238 40.2488 135.219C40.4532 135.2 40.6584 135.246 40.8362 135.348C41.0139 135.451 41.1555 135.606 41.2413 135.793C41.3272 135.979 41.3532 136.187 41.3156 136.389V136.458L38.187 138.268ZM40.3984 135.472C40.1894 135.483 39.9865 135.545 39.8079 135.654C39.4352 135.902 39.1197 136.226 38.8824 136.605C38.6451 136.984 38.4916 137.41 38.432 137.853L41.0769 136.32C41.087 136.173 41.0595 136.025 40.9968 135.891C40.9342 135.757 40.8385 135.641 40.7188 135.554C40.6212 135.498 40.5106 135.47 40.3984 135.472Z" fill="white"/>
<path d="M43.6591 137.683C43.6432 137.684 43.6273 137.682 43.6124 137.676C43.5975 137.671 43.584 137.662 43.5727 137.651C43.5614 137.639 43.5527 137.626 43.547 137.611C43.5413 137.596 43.5388 137.58 43.5398 137.564V133.556C43.5357 133.538 43.5356 133.52 43.5395 133.503C43.5434 133.485 43.5513 133.469 43.5625 133.455C43.5736 133.441 43.5878 133.429 43.604 133.421C43.6202 133.413 43.638 133.409 43.656 133.409C43.674 133.409 43.6917 133.413 43.7079 133.421C43.7241 133.429 43.7383 133.441 43.7495 133.455C43.7607 133.469 43.7685 133.485 43.7725 133.503C43.7764 133.52 43.7763 133.538 43.7722 133.556V137.564C43.7731 137.579 43.7708 137.595 43.7655 137.609C43.7602 137.624 43.752 137.637 43.7414 137.648C43.7308 137.659 43.718 137.668 43.7039 137.674C43.6898 137.68 43.6745 137.683 43.6591 137.683Z" fill="white"/>
<path d="M43.3454 134.473H43.2951C43.2807 134.467 43.2676 134.458 43.2568 134.447C43.2459 134.435 43.2376 134.422 43.2323 134.407C43.2269 134.392 43.2248 134.377 43.2259 134.361C43.227 134.345 43.2313 134.33 43.2386 134.316L43.6532 133.349L44.1244 133.889C44.1452 133.913 44.1556 133.945 44.1533 133.976C44.1509 134.008 44.136 134.038 44.1119 134.059C44.0877 134.079 44.0562 134.09 44.0244 134.087C43.9926 134.085 43.9631 134.07 43.9422 134.046L43.7223 133.788L43.4522 134.417C43.441 134.435 43.4253 134.449 43.4065 134.459C43.3877 134.469 43.3666 134.474 43.3454 134.473Z" fill="white"/>
<path d="M44.7463 137.062C44.7147 137.062 44.6843 137.049 44.6619 137.027C44.6395 137.004 44.627 136.974 44.627 136.942V132.934C44.627 132.902 44.6395 132.872 44.6619 132.85C44.6843 132.827 44.7147 132.815 44.7463 132.815C44.778 132.815 44.8083 132.827 44.8307 132.85C44.8531 132.872 44.8657 132.902 44.8657 132.934V136.942C44.8657 136.974 44.8531 137.004 44.8307 137.027C44.8083 137.049 44.778 137.062 44.7463 137.062Z" fill="white"/>
<path d="M44.4005 133.851H44.3565C44.3422 133.846 44.3293 133.837 44.3183 133.827C44.3074 133.816 44.2987 133.803 44.2929 133.789C44.287 133.775 44.2841 133.76 44.2842 133.745C44.2843 133.73 44.2875 133.714 44.2937 133.701L44.7146 132.727L45.1795 133.267C45.1907 133.278 45.1996 133.291 45.2056 133.306C45.2117 133.32 45.2148 133.336 45.2148 133.352C45.2148 133.368 45.2117 133.383 45.2056 133.398C45.1996 133.412 45.1907 133.426 45.1795 133.437C45.1689 133.448 45.1562 133.456 45.1422 133.462C45.1282 133.468 45.1131 133.472 45.0978 133.472C45.0825 133.472 45.0674 133.468 45.0534 133.462C45.0394 133.456 45.0267 133.448 45.0161 133.437L44.79 133.179L44.5198 133.807C44.5066 133.826 44.4882 133.84 44.4669 133.848C44.4456 133.856 44.4225 133.857 44.4005 133.851Z" fill="white"/>
<path d="M32.0243 146.78L9.05615 133.525V115.84L32.0243 129.102V146.78Z" fill="#9D7E6A"/>
<path d="M19.6733 126.155L21.401 127.154V122.97L19.6733 121.971V126.155Z" fill="#F5F5F5"/>
<path d="M21.401 122.97L44.3691 109.715L42.6415 108.709L19.6733 121.971L21.401 122.97Z" fill="white"/>
<path d="M12.6938 126.784L18.172 129.925C18.4889 130.132 18.7529 130.41 18.9427 130.737C19.1326 131.064 19.243 131.432 19.2651 131.81V135.196C19.2651 135.887 18.7751 136.169 18.172 135.824L12.6938 132.683C12.377 132.476 12.1134 132.198 11.9245 131.871C11.7356 131.543 11.6268 131.176 11.6069 130.798V127.418C11.6069 126.715 12.097 126.463 12.6938 126.784Z" fill="#F5F5F5"/>
<path d="M12.2725 127.626L12.4798 127.745V131.502L12.2725 131.382V127.626Z" fill="#E0E0E0"/>
<path d="M13.1143 128.116L13.4786 128.329V132.08L13.1143 131.872V128.116Z" fill="#E0E0E0"/>
<path d="M13.9624 128.606L14.176 128.725L14.1697 132.482L13.9624 132.362V128.606Z" fill="#E0E0E0"/>
<path d="M14.6035 128.97L15.0244 129.215L15.0182 132.972L14.6035 132.72V128.97Z" fill="#E0E0E0"/>
<path d="M15.6592 129.586L15.8665 129.705V133.462L15.6592 133.336V129.586Z" fill="#E0E0E0"/>
<path d="M16.2681 129.931L16.7141 130.195V133.945L16.2681 133.682V129.931Z" fill="#E0E0E0"/>
<path d="M17.3555 130.566L17.5628 130.685V134.436L17.3555 134.316V130.566Z" fill="#E0E0E0"/>
<path d="M17.8389 130.836L17.9457 130.899V134.649L17.8389 134.593V130.836Z" fill="#E0E0E0"/>
<path d="M16.9717 130.358L17.0722 130.415V134.172L16.9717 134.115V130.358Z" fill="#E0E0E0"/>
<path d="M15.2632 129.359L15.3637 129.416V133.173L15.2632 133.11V129.359Z" fill="#E0E0E0"/>
<path d="M14.3276 128.819L14.4344 128.882V132.633L14.3276 132.576V128.819Z" fill="#E0E0E0"/>
<path d="M13.6548 128.448L13.7616 128.511V132.268L13.6548 132.205V128.448Z" fill="#E0E0E0"/>
<path d="M12.7441 127.896L12.8509 127.958V131.709L12.7441 131.652V127.896Z" fill="#E0E0E0"/>
<path d="M18.2031 131.049L18.4104 131.175V134.926L18.2031 134.806V131.049Z" fill="#E0E0E0"/>
<path d="M49.8848 80.483L32.0241 70.1674L14.1572 80.483L32.0241 90.7923L49.8848 80.483Z" fill="#C49E85"/>
<path d="M32.0239 126.155L49.8846 115.84V80.483L32.0239 90.7923V126.155Z" fill="#B08E78"/>
<path d="M34.9707 120.288C34.8917 120.288 34.8139 120.269 34.7445 120.231C34.6463 120.16 34.5681 120.065 34.5175 119.955C34.4669 119.845 34.4455 119.724 34.4555 119.603V117.718V117.58H34.5498L36.0198 116.719V118.811C36.0162 119.081 35.9489 119.345 35.8233 119.583C35.6977 119.821 35.5175 120.026 35.2974 120.181C35.1997 120.245 35.087 120.281 34.9707 120.288ZM34.688 117.856V119.597C34.678 119.676 34.6883 119.757 34.718 119.832C34.7476 119.907 34.7957 119.973 34.8576 120.024C34.909 120.047 34.9658 120.057 35.022 120.051C35.0783 120.046 35.1321 120.026 35.178 119.992C35.3656 119.859 35.5198 119.684 35.6288 119.482C35.7378 119.279 35.7985 119.054 35.8062 118.824V118.673H35.2408L35.134 117.938L34.688 117.856ZM35.4418 118.434H35.8062V117.147L34.933 117.662L35.3665 117.737L35.4418 118.434Z" fill="white"/>
<path d="M35.2343 121.783C35.219 121.783 35.2037 121.78 35.1896 121.774C35.1754 121.768 35.1627 121.759 35.1521 121.748C35.1415 121.736 35.1333 121.723 35.128 121.709C35.1227 121.694 35.1204 121.679 35.1213 121.664V120.093C35.1204 120.078 35.1227 120.062 35.128 120.048C35.1333 120.033 35.1415 120.02 35.1521 120.009C35.1627 119.998 35.1754 119.989 35.1896 119.983C35.2037 119.977 35.219 119.974 35.2343 119.974C35.2503 119.973 35.2662 119.975 35.2811 119.981C35.296 119.987 35.3095 119.995 35.3208 120.007C35.332 120.018 35.3408 120.031 35.3465 120.046C35.3522 120.061 35.3546 120.077 35.3537 120.093V121.664C35.3546 121.679 35.3522 121.695 35.3465 121.71C35.3408 121.725 35.332 121.739 35.3208 121.75C35.3095 121.761 35.296 121.77 35.2811 121.776C35.2662 121.781 35.2503 121.784 35.2343 121.783Z" fill="white"/>
<path d="M34.5499 122.179C34.5247 122.177 34.5007 122.168 34.4813 122.152C34.4619 122.136 34.448 122.114 34.4417 122.089C34.4355 122.065 34.4371 122.039 34.4464 122.016C34.4556 121.992 34.4721 121.972 34.4933 121.959L35.8629 121.167C35.8904 121.151 35.923 121.147 35.9537 121.155C35.9843 121.164 36.0104 121.184 36.0262 121.211C36.0421 121.239 36.0463 121.271 36.0381 121.302C36.0298 121.333 36.0097 121.359 35.9823 121.375L34.6127 122.16C34.5943 122.173 34.5723 122.179 34.5499 122.179Z" fill="white"/>
<path d="M39.425 119.471C39.3803 119.471 39.3365 119.458 39.2993 119.433C39.2513 119.404 39.2124 119.362 39.1868 119.313C39.1613 119.263 39.1502 119.207 39.1548 119.151V118.83C39.1548 118.799 39.1674 118.768 39.1898 118.746C39.2122 118.723 39.2425 118.711 39.2742 118.711C39.3058 118.711 39.3362 118.723 39.3586 118.746C39.381 118.768 39.3935 118.799 39.3935 118.83V119.151C39.3849 119.177 39.3849 119.206 39.3935 119.232C39.4203 119.24 39.4485 119.24 39.4752 119.232C39.5469 119.165 39.6032 119.083 39.64 118.992C39.6769 118.901 39.6936 118.803 39.6888 118.705V116.613C39.6888 116.581 39.7014 116.551 39.7238 116.528C39.7462 116.506 39.7765 116.493 39.8082 116.493C39.8241 116.492 39.84 116.495 39.8549 116.5C39.8698 116.506 39.8833 116.515 39.8946 116.526C39.9059 116.537 39.9146 116.551 39.9203 116.566C39.926 116.581 39.9285 116.597 39.9275 116.613V118.705C39.9327 118.845 39.9053 118.984 39.8476 119.111C39.7898 119.239 39.7032 119.351 39.5946 119.44C39.5414 119.464 39.4832 119.474 39.425 119.471Z" fill="white"/>
<path d="M38.187 117.668V117.467C38.2153 116.944 38.3666 116.434 38.6285 115.98C38.8905 115.526 39.2558 115.14 39.6948 114.854C39.8522 114.723 40.0458 114.644 40.2495 114.627C40.4532 114.611 40.6572 114.657 40.8339 114.759C41.0106 114.862 41.1515 115.017 41.2376 115.202C41.3238 115.387 41.351 115.595 41.3156 115.796V115.859L38.187 117.668ZM40.3984 114.879C40.1894 114.889 39.9865 114.952 39.8079 115.061C39.4359 115.308 39.1208 115.631 38.8836 116.009C38.6464 116.387 38.4924 116.811 38.432 117.253L41.0769 115.727C41.0882 115.579 41.0612 115.431 40.9985 115.297C40.9358 115.162 40.8394 115.046 40.7188 114.96C40.6244 114.894 40.5135 114.855 40.3984 114.847V114.879Z" fill="white"/>
<path d="M43.6591 117.04C43.6275 117.04 43.5971 117.027 43.5747 117.005C43.5523 116.982 43.5398 116.952 43.5398 116.92V112.912C43.5357 112.895 43.5356 112.877 43.5395 112.859C43.5434 112.841 43.5513 112.825 43.5625 112.811C43.5736 112.797 43.5878 112.785 43.604 112.778C43.6202 112.77 43.638 112.766 43.656 112.766C43.674 112.766 43.6917 112.77 43.7079 112.778C43.7241 112.785 43.7383 112.797 43.7495 112.811C43.7607 112.825 43.7685 112.841 43.7725 112.859C43.7764 112.877 43.7763 112.895 43.7722 112.912V116.92C43.7723 116.951 43.7605 116.98 43.7395 117.003C43.7185 117.025 43.6897 117.038 43.6591 117.04Z" fill="white"/>
<path d="M43.3454 113.842H43.2951C43.2807 113.836 43.2676 113.827 43.2568 113.816C43.2459 113.804 43.2376 113.791 43.2323 113.776C43.2269 113.761 43.2248 113.746 43.2259 113.73C43.227 113.714 43.2313 113.699 43.2386 113.685L43.6532 112.718L44.1244 113.258C44.1452 113.28 44.1567 113.309 44.1567 113.339C44.1567 113.37 44.1452 113.399 44.1244 113.421C44.1013 113.442 44.071 113.454 44.0396 113.454C44.0082 113.454 43.978 113.442 43.9548 113.421L43.7349 113.164L43.4648 113.792C43.4524 113.811 43.4343 113.827 43.413 113.836C43.3917 113.845 43.3681 113.847 43.3454 113.842Z" fill="white"/>
<path d="M44.7463 116.412C44.7152 116.41 44.6857 116.397 44.6636 116.375C44.6415 116.353 44.6285 116.323 44.627 116.292V112.284C44.627 112.252 44.6395 112.222 44.6619 112.2C44.6843 112.177 44.7147 112.165 44.7463 112.165C44.778 112.165 44.8083 112.177 44.8307 112.2C44.8531 112.222 44.8657 112.252 44.8657 112.284V116.292C44.8642 116.323 44.8511 116.353 44.829 116.375C44.807 116.397 44.7775 116.41 44.7463 116.412Z" fill="white"/>
<path d="M44.4007 113.226H44.3568C44.3423 113.22 44.3292 113.211 44.3182 113.2C44.3072 113.189 44.2986 113.176 44.2927 113.161C44.2869 113.146 44.284 113.131 44.2842 113.115C44.2844 113.099 44.2877 113.084 44.2939 113.069L44.7148 112.102L45.1797 112.642C45.1909 112.653 45.1998 112.666 45.2059 112.681C45.212 112.696 45.2151 112.711 45.2151 112.727C45.2151 112.743 45.212 112.758 45.2059 112.773C45.1998 112.787 45.1909 112.801 45.1797 112.812C45.157 112.831 45.128 112.842 45.0981 112.842C45.0681 112.842 45.0392 112.831 45.0164 112.812L44.7902 112.554L44.5201 113.182C44.5064 113.2 44.4879 113.214 44.4668 113.222C44.4456 113.229 44.4227 113.231 44.4007 113.226Z" fill="white"/>
<path d="M32.0241 126.155L14.1572 115.84V80.483L32.0241 90.7923V126.155Z" fill="#9D7E6A"/>
<path d="M22.6323 89.5547L24.3662 90.5535V86.3758L22.6323 85.3706V89.5547Z" fill="#F5F5F5"/>
<path d="M24.3662 86.3758L42.2269 76.0603L40.4992 75.0614L22.6323 85.3706L24.3662 86.3758Z" fill="white"/>
<path d="M17.7948 109.099L23.273 112.24C23.5901 112.446 23.854 112.724 24.0429 113.052C24.2318 113.379 24.3404 113.747 24.3598 114.125V117.505C24.3598 118.196 23.8761 118.478 23.273 118.133L17.7948 114.992C17.4768 114.786 17.212 114.508 17.022 114.181C16.832 113.853 16.7223 113.485 16.7017 113.107V109.727C16.7079 109.036 17.1917 108.753 17.7948 109.099Z" fill="#F5F5F5"/>
<path d="M17.3682 109.947L17.5755 110.066V113.823L17.3682 113.698V109.947Z" fill="#E0E0E0"/>
<path d="M18.2158 110.437L18.5739 110.644V114.401L18.2158 114.188V110.437Z" fill="#E0E0E0"/>
<path d="M19.064 110.921L19.2713 111.046V114.797L19.064 114.678V110.921Z" fill="#E0E0E0"/>
<path d="M19.7046 111.285L20.1192 111.536V115.287L19.7046 115.042V111.285Z" fill="#E0E0E0"/>
<path d="M20.7603 111.901L20.9676 112.02V115.777L20.7603 115.658V111.901Z" fill="#E0E0E0"/>
<path d="M21.3691 112.246L21.8152 112.51V116.267L21.3691 116.003V112.246Z" fill="#E0E0E0"/>
<path d="M22.4565 112.881L22.6639 113V116.757L22.4565 116.631V112.881Z" fill="#E0E0E0"/>
<path d="M22.9399 113.157L23.0405 113.214V116.971L22.9399 116.908V113.157Z" fill="#E0E0E0"/>
<path d="M22.0669 112.674L22.1737 112.736V116.493L22.0669 116.43V112.674Z" fill="#E0E0E0"/>
<path d="M20.3584 111.675L20.4652 111.738V115.488L20.3584 115.432V111.675Z" fill="#E0E0E0"/>
<path d="M19.4219 111.141L19.5287 111.197V114.954L19.4219 114.891V111.141Z" fill="#E0E0E0"/>
<path d="M18.7559 110.77L18.8564 110.827V114.583L18.7559 114.521V110.77Z" fill="#E0E0E0"/>
<path d="M17.8457 110.217L17.9462 110.274V114.031L17.8457 113.968V110.217Z" fill="#E0E0E0"/>
<path d="M23.2983 113.371L23.5119 113.49V117.241L23.2983 117.121V113.371Z" fill="#E0E0E0"/>
<path d="M14.3263 177.821L82.8915 217.4C83.7345 217.827 84.6665 218.05 85.6117 218.05C86.557 218.05 87.489 217.827 88.332 217.4L238.561 130.704C240.062 129.837 240.062 128.43 238.561 127.563L169.996 87.9841C169.154 87.5534 168.221 87.3289 167.276 87.3289C166.33 87.3289 165.397 87.5534 164.555 87.9841L14.3263 174.68C12.8248 175.547 12.8248 176.954 14.3263 177.821Z" fill="#455A64"/>
<path d="M51.3864 196.197C52.5554 196.787 53.8464 197.094 55.1558 197.094C56.4651 197.094 57.7562 196.787 58.9252 196.197C61.0172 194.991 61.0172 193.056 58.9252 191.831C57.7571 191.238 56.4657 190.929 55.1558 190.929C53.8459 190.929 52.5545 191.238 51.3864 191.831C49.2944 193.056 49.2944 195.003 51.3864 196.197Z" fill="#263238"/>
<path d="M84.18 217.4L15.6148 177.821C14.2704 177.042 14.1321 175.836 15.1939 174.969C14.5233 175.499 13.9719 176.165 13.5757 176.923C13.1796 177.681 12.9475 178.513 12.8945 179.367V181.924C12.9461 182.867 13.2193 183.786 13.6918 184.604C14.1644 185.423 14.8232 186.119 15.6148 186.635L84.18 226.214C85.0183 226.652 85.9547 226.868 86.9002 226.842V218.053C85.9525 218.071 85.016 217.846 84.18 217.4Z" fill="#37474F"/>
<path d="M238.555 139.512C239.349 138.996 240.009 138.301 240.483 137.482C240.957 136.664 241.231 135.744 241.282 134.8V132.243C241.231 131.389 240.999 130.555 240.601 129.796C240.204 129.038 239.65 128.373 238.976 127.845C240.044 128.712 239.906 129.919 238.562 130.691L88.3325 217.4C87.4936 217.836 86.5576 218.052 85.6123 218.028V226.867C86.5576 226.891 87.4936 226.675 88.3325 226.239L238.555 139.512Z" fill="#263238"/>
<path d="M94.1873 209.201L28.5623 171.294C27.6576 170.772 27.6576 169.924 28.5623 169.409L155.415 96.1511C155.921 95.894 156.481 95.76 157.048 95.76C157.616 95.76 158.176 95.894 158.682 96.1511L224.332 134.052C225.23 134.574 225.23 135.416 224.332 135.937L97.429 209.201C96.9262 209.454 96.3711 209.586 95.8082 209.586C95.2453 209.586 94.6902 209.454 94.1873 209.201Z" fill="white"/>
<path d="M67.7454 188.036L75.4036 183.614L72.853 182.143L65.1948 186.56L67.7454 188.036Z" fill="#C49E85"/>
<path d="M159.618 134.995L167.276 130.572L164.719 129.102L157.067 133.525L159.618 134.995Z" fill="#C49E85"/>
<path d="M174.928 126.155L182.586 121.733L180.036 120.263L172.377 124.679L174.928 126.155Z" fill="#C49E85"/>
<path d="M199.504 110.67C199.801 110.818 200.129 110.896 200.462 110.896C200.794 110.896 201.122 110.818 201.42 110.67C201.535 110.63 201.635 110.556 201.706 110.456C201.777 110.357 201.815 110.239 201.815 110.117C201.815 109.995 201.777 109.876 201.706 109.777C201.635 109.678 201.535 109.603 201.42 109.564C201.123 109.412 200.795 109.333 200.462 109.333C200.129 109.333 199.8 109.412 199.504 109.564C199.388 109.603 199.288 109.678 199.217 109.777C199.146 109.876 199.108 109.995 199.108 110.117C199.108 110.239 199.146 110.357 199.217 110.456C199.288 110.556 199.388 110.63 199.504 110.67Z" fill="#263238"/>
<path d="M202.564 119.345C203.157 119.646 203.812 119.802 204.476 119.802C205.141 119.802 205.797 119.646 206.389 119.345C207.445 118.717 207.445 117.743 206.389 117.134C205.797 116.834 205.141 116.677 204.476 116.677C203.812 116.677 203.157 116.834 202.564 117.134C201.508 117.743 201.508 118.736 202.564 119.345Z" fill="#263238"/>
<path d="M199.862 115.501C200.566 115.092 200.528 114.414 199.78 113.98L187.216 106.712C186.811 106.495 186.361 106.377 185.902 106.369C185.444 106.36 184.989 106.46 184.577 106.661C183.873 107.07 183.911 107.748 184.659 108.182L197.261 115.45C197.661 115.661 198.104 115.774 198.556 115.783C199.007 115.792 199.454 115.695 199.862 115.501Z" fill="#263238"/>
<path d="M178.414 86.024L178.842 85.7727C178.547 86.8447 178.403 87.9528 178.414 89.0646V90.5975C178.414 96.1008 185.017 110.161 187.448 115.136C187.7 115.658 184.364 119.207 184.364 119.207L188.328 116.92C188.328 116.92 198.235 108.753 198.235 102.044V100.511C198.235 93.7701 193.8 85.7476 188.328 82.5876C185.564 80.9981 183.07 80.9416 181.273 82.1478L177.503 84.3089L178.414 86.024ZM183.371 91.1692C183.371 88.028 185.589 86.7276 188.328 88.3107C188.102 90.3399 191.808 96.6599 193.278 96.8924C193.278 100.034 191.061 101.334 188.328 99.7508C186.889 98.8085 185.693 97.5404 184.836 96.0494C183.98 94.5584 183.486 92.8865 183.396 91.1692H183.371Z" fill="#C49E85"/>
<path d="M174.338 93.0539C174.451 99.7885 184.678 119.207 184.678 119.207C184.678 119.207 194.454 110.902 194.347 104.167V102.634C194.234 95.8998 189.666 87.9464 184.138 84.8806C178.61 81.8148 174.225 84.7801 174.338 91.521V93.0539ZM179.301 93.5439C179.25 90.4028 181.449 89.0646 184.207 90.5975C185.665 91.5139 186.886 92.7612 187.771 94.2381C188.656 95.715 189.181 97.3799 189.302 99.0975C189.359 102.239 187.16 103.577 184.396 102.044C182.94 101.126 181.72 99.8778 180.835 98.4013C179.95 96.9248 179.424 95.2609 179.301 93.5439Z" fill="#C49E85"/>
<path opacity="0.1" d="M174.338 93.0539C174.451 99.7885 184.678 119.207 184.678 119.207C184.678 119.207 194.454 110.902 194.347 104.167V102.634C194.234 95.8998 189.666 87.9464 184.138 84.8806C178.61 81.8148 174.225 84.7801 174.338 91.521V93.0539ZM179.301 93.5439C179.25 90.4028 181.449 89.0646 184.207 90.5975C185.665 91.5139 186.886 92.7612 187.771 94.2381C188.656 95.715 189.181 97.3799 189.302 99.0975C189.359 102.239 187.16 103.577 184.396 102.044C182.94 101.126 181.72 99.8778 180.835 98.4013C179.95 96.9248 179.424 95.2609 179.301 93.5439Z" fill="black"/>
<path d="M78.5257 182.872C84.8771 186.528 99.7662 183.871 111.784 176.929L144.798 157.875C156.816 150.933 161.402 142.351 155.038 138.701C148.674 135.051 133.772 137.721 121.742 144.657L88.791 163.686C76.7792 170.622 72.1805 179.235 78.5257 182.872Z" fill="#F0F0F0"/>
<path d="M174.645 23.1317H174.677L180.111 19.9906H180.155C183.579 18.2567 188.152 18.7341 193.078 21.9381C202.978 28.3084 210.536 43.009 209.964 54.7632C209.675 60.6246 207.451 64.6453 204.015 66.4169H203.984L198.543 69.558H198.505C195.082 71.2982 190.502 70.8145 185.57 67.6168C175.676 61.2403 168.118 46.5459 168.69 34.7917C168.991 28.924 171.246 24.9033 174.645 23.1317Z" fill="#37474F"/>
<path d="M198.82 69.3947L204.003 66.3792H204.04C207.445 64.6013 209.695 60.5806 209.983 54.7255C210.235 49.486 208.872 43.6623 206.409 38.2532L200.968 41.3944C203.437 46.8035 204.801 52.6272 204.543 57.8729C204.273 63.5898 202.112 67.5665 198.82 69.3947Z" fill="#263238"/>
<path d="M185.596 67.6105C175.701 61.234 168.143 46.5396 168.715 34.7854C169.287 23.0312 177.787 18.665 187.662 25.0353C197.538 31.4055 205.121 46.1061 204.549 57.8604C203.978 69.6146 195.49 73.9808 185.596 67.6105Z" fill="#455A64"/>
<path d="M193.888 66.7812C199.724 67.0639 200.673 60.4989 200.799 57.6719C201.301 47.3061 194.353 33.7991 185.627 28.1764C183.767 26.874 181.604 26.0734 179.344 25.852C173.514 25.5693 172.566 32.1343 172.434 34.9613C171.931 45.3271 178.873 58.8341 187.606 64.4882C189.465 65.7906 191.629 66.5912 193.888 66.8127V66.7812Z" fill="#FAFAFA"/>
<path d="M185.488 48.2673C185.557 48.2675 185.625 48.2547 185.689 48.2296C185.821 48.187 185.934 48.1024 186.013 47.9888C186.091 47.8753 186.13 47.7391 186.123 47.6013V32.6306C186.123 32.464 186.057 32.3042 185.939 32.1864C185.821 32.0685 185.661 32.0023 185.495 32.0023C185.328 32.0023 185.168 32.0685 185.051 32.1864C184.933 32.3042 184.866 32.464 184.866 32.6306V45.7795L177.874 36.7958C177.771 36.6625 177.619 36.5757 177.452 36.5545C177.284 36.5333 177.115 36.5794 176.982 36.6827C176.849 36.786 176.762 36.938 176.741 37.1053C176.72 37.2726 176.766 37.4415 176.869 37.5748L185.005 48.0223C185.062 48.0966 185.135 48.1572 185.219 48.1996C185.302 48.242 185.395 48.2651 185.488 48.2673Z" fill="#37474F"/>
<path d="M189.095 59.343C189.124 59.3487 189.154 59.3487 189.183 59.343C189.249 59.3226 189.306 59.2772 189.34 59.2163C189.374 59.1554 189.383 59.0837 189.365 59.0163L185.841 47.149C185.821 47.0815 185.775 47.0248 185.713 46.9912C185.651 46.9576 185.578 46.95 185.511 46.97C185.443 46.99 185.387 47.0359 185.353 47.0978C185.319 47.1596 185.312 47.2323 185.332 47.2998L188.85 59.1671C188.868 59.2179 188.901 59.262 188.945 59.2935C188.989 59.3249 189.041 59.3422 189.095 59.343Z" fill="#C49E85"/>
<path d="M185.69 44.6298C184.522 43.8822 183.523 44.3974 183.46 45.7795C183.464 46.5333 183.646 47.2756 183.991 47.9459C184.336 48.6162 184.834 49.1956 185.445 49.6368C186.607 50.3907 187.606 49.8755 187.675 48.4934C187.67 47.739 187.488 46.9963 187.143 46.3252C186.798 45.6541 186.3 45.0734 185.69 44.6298Z" fill="#C49E85"/>
<path d="M83.0618 179.197L90.7137 174.774L88.1631 173.304L80.5112 177.721L83.0618 179.197Z" fill="#C49E85"/>
<path d="M98.3714 170.358L106.03 165.935L103.473 164.465L95.8208 168.881L98.3714 170.358Z" fill="#C49E85"/>
<path d="M95.2239 168.555C95.2239 172.249 92.6355 176.722 89.4378 178.606C87.7353 179.593 86.2024 179.624 85.147 178.883C84.7215 178.549 84.372 178.127 84.1218 177.648C83.8716 177.168 83.7264 176.64 83.6958 176.1C83.9107 175.999 84.1204 175.888 84.324 175.767C87.5217 173.926 90.1101 169.434 90.1101 165.715C90.1131 165.44 90.0963 165.165 90.0598 164.892C90.539 164.639 91.0658 164.488 91.6066 164.449C92.1474 164.41 92.6903 164.484 93.2009 164.666C94.4574 165.194 95.2239 166.557 95.2239 168.555Z" fill="#263238"/>
<path d="M95.7458 160.966L95.639 160.903C94.0307 160.049 91.8696 160.206 89.4383 161.6C84.5067 164.446 80.5049 171.369 80.5049 177.067C80.5049 179.932 81.5163 181.936 83.1497 182.866C84.7831 183.796 86.9882 183.639 89.4321 182.238C94.3637 179.392 98.3592 172.462 98.3592 166.764C98.3655 163.9 97.3729 161.896 95.7458 160.966ZM89.4635 178.594C87.7547 179.58 86.2218 179.612 85.1664 178.864C84.2366 178.236 83.6712 176.979 83.6712 175.252C83.6712 171.564 86.2658 167.085 89.4635 165.2C90.921 164.358 92.2465 164.214 93.2329 164.647C94.4516 165.169 95.2181 166.532 95.2181 168.542C95.2244 172.261 92.636 176.753 89.4383 178.606L89.4635 178.594Z" fill="#37474F"/>
<path d="M93.5281 164.817L93.459 164.779C92.4161 164.22 91.0026 164.327 89.4383 165.225C86.2406 167.072 83.646 171.564 83.646 175.277C83.646 177.162 84.2742 178.418 85.3611 179.046C86.4479 179.674 87.874 179.549 89.4383 178.632C92.636 176.785 95.2243 172.293 95.2243 168.58C95.2243 166.72 94.5772 165.414 93.5281 164.817ZM89.4383 177.287C88.0687 178.079 86.8374 178.104 85.983 177.501C85.2417 176.979 84.7831 175.98 84.7831 174.598C84.8711 172.984 85.3385 171.412 86.1473 170.012C86.9561 168.611 88.0836 167.421 89.4383 166.538C89.8784 166.231 90.3841 166.031 90.9153 165.953C91.4464 165.876 91.9883 165.923 92.4978 166.092C93.4778 166.513 94.0935 167.606 94.0935 169.233C94.006 170.847 93.5388 172.418 92.7299 173.817C91.921 175.217 90.7932 176.406 89.4383 177.287Z" fill="#C49E85"/>
<path d="M113.682 161.512L121.34 157.096L118.789 155.619L111.131 160.042L113.682 161.512Z" fill="#C49E85"/>
<path d="M128.998 152.673L136.65 148.257L134.1 146.78L126.441 151.203L128.998 152.673Z" fill="#C49E85"/>
<path d="M144.308 143.834L151.96 139.417L149.409 137.941L141.751 142.364L144.308 143.834Z" fill="#C49E85"/>
<path d="M106.206 102.729C106.286 102.622 106.398 102.543 106.526 102.504C106.654 102.465 106.79 102.468 106.917 102.512C107.043 102.556 107.151 102.64 107.227 102.75C107.302 102.86 107.341 102.991 107.337 103.124C107.386 103.482 107.35 103.846 107.231 104.187C107.111 104.528 106.913 104.835 106.652 105.085C106.15 105.518 105.641 105.342 105.521 104.689C105.473 104.331 105.509 103.967 105.628 103.627C105.747 103.286 105.945 102.978 106.206 102.729Z" fill="#C49E85"/>
<path d="M112.099 105.505L106.979 102.546L105.854 105.254L110.993 108.219L112.099 105.505Z" fill="#C49E85"/>
<path d="M111.313 105.675C111.815 105.248 112.318 105.424 112.444 106.077C112.49 106.434 112.451 106.797 112.331 107.137C112.211 107.476 112.013 107.782 111.753 108.031C111.25 108.464 110.741 108.289 110.622 107.635C110.576 107.277 110.615 106.913 110.735 106.573C110.855 106.233 111.053 105.925 111.313 105.675Z" fill="#C49E85"/>
<path d="M150.666 130.453C150.666 130.578 150.666 130.691 150.666 130.817C150.666 131.068 150.666 131.326 150.666 131.583C149.648 131.15 148.322 131.294 146.865 132.136C143.667 133.983 141.072 138.475 141.072 142.188C141.072 143.909 141.638 145.153 142.568 145.8C142.307 145.986 142.036 146.158 141.757 146.315L141.462 146.466L140.576 149.802L135.45 146.944C133.829 146.008 132.83 144.01 132.83 141.158C132.83 135.46 136.826 128.536 141.757 125.684C144.195 124.277 146.4 124.133 148.04 125.056L153.065 127.87L153.172 127.933L150.666 130.453Z" fill="#455A64"/>
<path d="M153.166 127.877L153.059 127.814C151.451 126.96 149.29 127.117 146.859 128.511C141.927 131.357 137.925 138.28 137.925 143.978C137.925 146.843 138.937 148.847 140.57 149.777C142.204 150.707 144.409 150.55 146.852 149.149C151.784 146.303 155.78 139.373 155.78 133.675C155.798 130.811 154.787 128.807 153.166 127.877ZM146.884 145.505C145.175 146.491 143.642 146.523 142.587 145.775C141.657 145.147 141.092 143.89 141.092 142.163C141.092 138.475 143.686 133.996 146.884 132.111C148.341 131.269 149.667 131.125 150.685 131.558C151.903 132.08 152.67 133.443 152.67 135.453C152.657 139.172 150.056 143.664 146.859 145.505H146.884Z" fill="#37474F"/>
<path d="M152.657 135.478C152.657 139.172 150.069 143.645 146.871 145.53C145.169 146.516 143.636 146.548 142.581 145.806C142.155 145.472 141.806 145.051 141.555 144.571C141.305 144.091 141.16 143.564 141.129 143.023C141.344 142.923 141.554 142.812 141.758 142.69C144.955 140.85 147.544 136.358 147.544 132.639C147.547 132.364 147.53 132.089 147.493 131.816C147.973 131.562 148.499 131.411 149.04 131.372C149.581 131.333 150.124 131.407 150.635 131.59C151.878 132.117 152.657 133.468 152.657 135.478Z" fill="#263238"/>
<path d="M150.948 131.728L150.879 131.684C149.837 131.131 148.417 131.232 146.859 132.136C143.661 133.983 141.066 138.469 141.066 142.188C141.066 144.073 141.695 145.329 142.781 145.957C143.868 146.585 145.294 146.454 146.859 145.536C150.056 143.696 152.645 139.204 152.645 135.485C152.657 133.631 152.029 132.331 150.948 131.728ZM146.859 144.192C145.483 144.99 144.252 145.015 143.403 144.412C142.656 143.89 142.204 142.892 142.204 141.509C142.292 139.895 142.759 138.323 143.568 136.923C144.377 135.522 145.504 134.332 146.859 133.449C148.027 132.771 149.095 132.651 149.912 133.003C150.892 133.424 151.508 134.517 151.508 136.144C151.42 137.757 150.954 139.326 150.146 140.724C149.338 142.123 148.212 143.311 146.859 144.192Z" fill="#C49E85"/>
<path d="M141.75 137.357L156.2 129.014C157.877 128.04 152.43 122.355 148.378 121.971C146.147 121.702 143.885 121.916 141.744 122.6C141.744 122.6 144.829 126.551 144.301 128.794C143.773 131.037 141.75 137.357 141.75 137.357Z" fill="#C49E85"/>
<path d="M121.34 113.779C121.34 113.779 142.286 124.346 143.19 124.981C144.095 125.615 143.19 132.984 141.752 137.357C140.313 141.729 138.102 148.451 137.216 150.336C136.33 152.221 135.174 152.924 133.051 154.149L117.973 162.863L97.5617 165.351L89.4575 160.953L91.5684 147.691C91.5684 147.691 113.261 136.151 116.233 134.436C119.204 132.72 127.993 124.673 121.34 113.779Z" fill="#C49E85"/>
<path opacity="0.2" d="M121.34 113.779C121.34 113.779 142.286 124.346 143.19 124.981C144.095 125.615 143.19 132.984 141.752 137.357C140.313 141.729 138.102 148.451 137.216 150.336C136.33 152.221 135.174 152.924 133.051 154.149L117.973 162.863L97.5617 165.351L89.4575 160.953L91.5684 147.691C91.5684 147.691 113.261 136.151 116.233 134.436C119.204 132.72 127.993 124.673 121.34 113.779Z" fill="black"/>
<path d="M143.592 134.838C145.476 129.774 146.884 125.577 146.645 122.744C146.356 119.383 145.099 116.638 139.558 115.256C134.017 113.874 126.271 113.899 126.271 113.899L123.916 115.262C123.916 115.262 139.847 124.497 141.657 125.502C142.762 126.13 143.944 128.901 141.776 137.363L142.147 137.577C142.329 137.69 142.989 136.465 143.592 134.838Z" fill="#C49E85"/>
<path opacity="0.3" d="M143.592 134.838C145.476 129.774 146.884 125.577 146.645 122.744C146.356 119.383 145.099 116.638 139.558 115.256C134.017 113.874 126.271 113.899 126.271 113.899L123.916 115.262C123.916 115.262 139.847 124.497 141.657 125.502C142.762 126.13 143.944 128.901 141.776 137.363L142.147 137.577C142.329 137.69 142.989 136.465 143.592 134.838Z" fill="white"/>
<path d="M131.524 119.672L134.1 118.202C134.1 118.202 133.949 109.275 130.192 107.107C126.435 104.94 113.682 106.416 113.682 106.416L111.131 107.886L131.524 119.672Z" fill="#C49E85"/>
<path d="M123.168 109.149C121.943 109.859 121.943 111.002 123.168 111.706C123.855 112.056 124.615 112.238 125.385 112.238C126.156 112.238 126.916 112.056 127.603 111.706C128.822 111.002 128.822 109.853 127.603 109.149C126.915 108.802 126.156 108.622 125.385 108.622C124.615 108.622 123.856 108.802 123.168 109.149Z" fill="#F0F0F0"/>
<path d="M127.088 113.415C126.227 113.917 126.227 114.728 127.088 115.224C127.574 115.473 128.112 115.603 128.658 115.603C129.205 115.603 129.743 115.473 130.229 115.224C131.096 114.728 131.096 113.917 130.229 113.415C129.742 113.169 129.204 113.041 128.658 113.041C128.113 113.041 127.575 113.169 127.088 113.415Z" fill="#F0F0F0"/>
<path d="M117.219 108.012C116.352 108.508 116.352 109.319 117.219 109.821C117.706 110.067 118.244 110.195 118.789 110.195C119.335 110.195 119.873 110.067 120.36 109.821C121.227 109.319 121.227 108.508 120.36 108.012C119.874 107.763 119.335 107.634 118.789 107.634C118.243 107.634 117.705 107.763 117.219 108.012Z" fill="#F0F0F0"/>
<path d="M131.926 117.084C132.428 116.65 132.931 116.826 133.057 117.48C133.103 117.838 133.065 118.201 132.945 118.542C132.825 118.882 132.626 119.19 132.366 119.44C132.286 119.547 132.174 119.625 132.046 119.664C131.918 119.703 131.781 119.7 131.655 119.656C131.529 119.612 131.421 119.529 131.345 119.419C131.269 119.309 131.231 119.177 131.235 119.044C131.187 118.686 131.224 118.321 131.344 117.981C131.464 117.64 131.664 117.332 131.926 117.084Z" fill="#C49E85"/>
<path d="M137.787 119.861L132.661 116.902L131.542 119.609L136.675 122.568L137.787 119.861Z" fill="#C49E85"/>
<path d="M136.996 120.03C137.076 119.923 137.188 119.845 137.315 119.806C137.443 119.767 137.58 119.77 137.706 119.814C137.832 119.858 137.941 119.941 138.016 120.051C138.092 120.161 138.131 120.292 138.126 120.426C138.174 120.784 138.137 121.148 138.016 121.489C137.896 121.83 137.697 122.137 137.435 122.386C136.933 122.82 136.43 122.637 136.305 121.99C136.258 121.632 136.296 121.268 136.416 120.928C136.536 120.587 136.735 120.28 136.996 120.03Z" fill="#C49E85"/>
<path d="M136.996 120.03C137.076 119.923 137.188 119.845 137.315 119.806C137.443 119.767 137.58 119.77 137.706 119.814C137.832 119.858 137.941 119.941 138.016 120.051C138.092 120.161 138.131 120.292 138.126 120.426C138.174 120.784 138.137 121.148 138.016 121.489C137.896 121.83 137.697 122.137 137.435 122.386C136.933 122.82 136.43 122.637 136.305 121.99C136.258 121.632 136.296 121.268 136.416 120.928C136.536 120.587 136.735 120.28 136.996 120.03Z" fill="black"/>
<path d="M93.2455 163.529C93.2455 163.655 93.2455 163.768 93.2455 163.893C93.2455 164.145 93.2455 164.402 93.2455 164.66C92.2278 164.226 90.9022 164.371 89.4761 165.213C86.2784 167.06 83.6838 171.551 83.6838 175.264C83.6838 176.986 84.2492 178.23 85.179 178.877C84.918 179.062 84.6475 179.234 84.3686 179.392L84.0733 179.543L83.1875 182.878L78.0611 180.02C76.4403 179.084 75.4414 177.086 75.4414 174.234C75.4414 168.536 79.437 161.613 84.3686 158.761C86.8061 157.353 89.0112 157.209 90.6509 158.132L95.6768 160.947L95.7836 161.01L93.2455 163.529Z" fill="#455A64"/>
<path d="M77.9543 153.559L74.1284 166.821L81.7866 171.244L85.7507 158.063L77.9543 153.559Z" fill="#C49E85"/>
<path opacity="0.2" d="M77.9543 153.559L74.1284 166.821L81.7866 171.244L85.7507 158.063L77.9543 153.559Z" fill="black"/>
<path d="M77.9546 153.559C77.9546 153.559 82.2957 157.247 85.7509 158.063C90.2868 159.163 97.4989 159.282 100.056 159.458C103.963 159.728 106.916 159.722 108.298 159.226C110.089 158.597 114.901 155.802 116.233 155.035C118.783 153.565 119.87 147.779 112.84 146.196C108.087 145.211 103.245 144.716 98.391 144.72L77.9546 153.559Z" fill="#C49E85"/>
<path d="M121.246 151.863C121.027 152.409 120.88 152.981 120.806 153.565C120.604 154.172 120.556 154.82 120.668 155.45C121.147 156.242 121.9 156.83 122.785 157.102C123.422 157.244 124.082 157.253 124.723 157.129C125.364 157.004 125.972 156.749 126.51 156.38C127.811 155.601 128.791 154.658 130.638 154.131C131.958 153.851 133.202 153.287 134.282 152.478C135.306 151.655 136.675 149.381 134.715 148.853C132.755 148.326 128.496 150.185 124.613 150.355L121.246 151.863Z" fill="#37474F"/>
<path d="M121.246 149.438V152.34C121.364 152.666 121.571 152.953 121.843 153.169C122.114 153.386 122.44 153.523 122.785 153.565C123.1 153.611 123.422 153.577 123.721 153.465C124.191 153.285 124.599 152.972 124.894 152.563C125.189 152.154 125.357 151.669 125.379 151.165L125.492 149.438H121.246Z" fill="#FFA8A7"/>
<path d="M126.774 131.489C126.774 135.101 125.756 150.719 125.756 150.719C125.756 150.719 124.28 152.604 121.069 150.719L119.989 133.267L126.774 131.489Z" fill="#37474F"/>
<path d="M109.938 146.881L119.989 141.088C120.401 140.872 120.746 140.548 120.987 140.15C121.227 139.751 121.355 139.295 121.355 138.83C121.355 138.365 121.227 137.909 120.987 137.51C120.746 137.112 120.401 136.788 119.989 136.572L112.501 132.249C112.079 132.036 111.613 131.924 111.141 131.924C110.668 131.924 110.202 132.036 109.78 132.249L99.7288 138.042C99.3187 138.259 98.9756 138.584 98.7363 138.982C98.497 139.38 98.3706 139.836 98.3706 140.3C98.3706 140.764 98.497 141.22 98.7363 141.618C98.9756 142.016 99.3187 142.341 99.7288 142.559L107.217 146.881C107.639 147.094 108.105 147.206 108.577 147.206C109.05 147.206 109.516 147.094 109.938 146.881Z" fill="#C49E85"/>
<path d="M109.938 146.881L119.989 141.088C120.401 140.872 120.746 140.548 120.987 140.15C121.227 139.751 121.355 139.295 121.355 138.83C121.355 138.365 121.227 137.909 120.987 137.51C120.746 137.112 120.401 136.788 119.989 136.572L112.501 132.249C112.079 132.036 111.613 131.924 111.141 131.924C110.668 131.924 110.202 132.036 109.78 132.249L99.7288 138.042C99.3187 138.259 98.9756 138.584 98.7363 138.982C98.497 139.38 98.3706 139.836 98.3706 140.3C98.3706 140.764 98.497 141.22 98.7363 141.618C98.9756 142.016 99.3187 142.341 99.7288 142.559L107.217 146.881C107.639 147.094 108.105 147.206 108.577 147.206C109.05 147.206 109.516 147.094 109.938 146.881Z" fill="white"/>
<path d="M99.7288 139.612L107.217 143.934C107.639 144.148 108.105 144.259 108.577 144.259C109.05 144.259 109.516 144.148 109.938 143.934L119.989 138.142C120.153 138.086 120.296 137.981 120.397 137.84C120.498 137.699 120.552 137.53 120.552 137.357C120.552 137.184 120.498 137.015 120.397 136.874C120.296 136.733 120.153 136.627 119.989 136.572L112.501 132.249C112.079 132.036 111.613 131.924 111.141 131.924C110.668 131.924 110.202 132.036 109.781 132.249L99.7288 138.042C99.5647 138.097 99.4222 138.203 99.3213 138.344C99.2203 138.485 99.166 138.654 99.166 138.827C99.166 139 99.2203 139.169 99.3213 139.31C99.4222 139.451 99.5647 139.556 99.7288 139.612Z" fill="#C49E85"/>
<path d="M105.854 101.164L104.579 106.423L99.1006 106.756L100.282 99.4682L105.854 101.164Z" fill="#FFA8A7"/>
<path d="M111.194 97.2065C111.194 97.2065 111.822 99.4304 111.565 99.5561C111.169 99.6164 110.767 99.6164 110.371 99.5561L111.194 97.2065Z" fill="#F28F8F"/>
<path d="M110.145 90.1075C111.024 91.1441 111.829 92.8466 111.207 97.0181C110.528 101.579 109.686 102.107 109.008 102.546C108.122 103.124 104.579 102.817 103.58 102.088C102.38 101.215 100.527 98.4441 100.087 95.7113C99.5718 92.5011 100.646 88.939 103.008 88.3296C106.332 87.4689 109.397 89.228 110.145 90.1075Z" fill="#FFA8A7"/>
<path d="M99.7293 100.945C100.577 101.824 102.318 102.063 103.411 102.264C104.504 102.465 107.865 102.685 108.857 100.291C109.85 97.8976 109.172 96.1762 110.39 95.5982C111.609 95.0203 112.828 94.6433 113.148 94.3418C113.469 94.0402 113.475 90.1012 110.202 88.0595C106.929 86.0177 101.916 85.5465 98.6173 89.6866C96.1169 92.8843 97.1409 98.2431 99.7293 100.945Z" fill="#455A64"/>
<path d="M103.027 102.295C103.875 102.371 106.558 101.95 107.368 100.844C108.178 99.7383 108.505 97.7594 108.624 96.7228C108.635 96.3145 108.785 95.9222 109.049 95.6104C109.313 95.2987 109.675 95.0861 110.076 95.0077C110.886 94.7501 112.676 93.8706 112.676 93.8706V93.3806C113.254 93.3443 113.833 93.3443 114.41 93.3806C114.787 93.4497 114.58 94.0088 113.625 94.4926C112.67 94.9763 110.05 95.9124 109.648 96.2328C109.246 96.5532 109.058 97.9039 108.737 99.3425C108.417 100.781 107.424 102.93 103.027 102.295Z" fill="#37474F"/>
<path d="M110.566 108.245L113.707 106.442C114.008 105.531 113.525 105.072 112.67 105.129C111.816 105.185 112.08 104.356 111.558 104.123C110.873 103.809 110.484 103.985 110.176 103.841C109.868 103.696 109.736 103.332 109.334 103.288C107.538 103.118 106.312 105.681 106.312 105.681L110.566 108.245Z" fill="#F28F8F"/>
<path d="M89.2437 131.313C89.2437 131.313 103.121 124.434 105.54 123.322C107.959 122.21 111.753 120.596 113.77 120.596C114.558 120.661 115.296 121.008 115.849 121.573C116.402 122.139 116.732 122.885 116.779 123.674C116.805 124.886 116.736 126.098 116.572 127.299C112.759 128.55 108.863 129.53 104.912 130.233C99.1383 131.238 89.2437 131.313 89.2437 131.313Z" fill="#37474F"/>
<path d="M90.751 127.337C90.751 130.189 90.4809 133.154 91.6682 135.24C92.8556 137.325 99.2887 142.15 105.345 141.139C109.303 140.473 121.051 135.064 121.051 135.064C121.051 135.064 126.749 132.972 126.774 131.483C126.812 129.29 126.661 126.199 121.691 126.331C117.162 126.451 103.799 129.24 103.799 129.24L90.751 127.337Z" fill="#455A64"/>
<path d="M94.6279 104.739C96.7765 102.496 98.2277 102.308 99.258 102.584C101.626 103.262 103.918 104.18 106.099 105.323C106.099 105.323 105.27 113.352 109.197 115.664V128.178C109.197 128.178 109.077 129.535 107.368 130.886C105.861 132.073 102.449 133.273 98.3785 132.934C93.5411 132.532 90.7517 127.337 90.7517 127.337C90.7517 127.337 90.6261 117.103 91.3109 113.038C92.115 108.295 93.8866 105.518 94.6279 104.739Z" fill="#455A64"/>
<path d="M109.196 116.273C109.196 116.273 106.822 114.389 106.099 111.939C106.099 111.939 106.382 115.783 109.196 117.731V116.273Z" fill="#37474F"/>
<path d="M131.178 122.179C132.306 122.225 133.415 121.881 134.319 121.205C134.319 121.205 135.412 119.082 136.757 119.264C136.757 119.264 136.995 118.359 136.443 118.064C135.89 117.769 135.651 117.85 135.425 117.536C135.199 117.222 135.174 116.638 134.168 116.638C133.754 116.638 133.81 116.342 132.805 116.223C131.8 116.104 130.807 118.422 130.072 118.422L131.178 122.179Z" fill="#FFA8A7"/>
<path d="M106.099 105.323C109.548 105.857 110.798 106.881 112.055 108.043C113.311 109.206 121.001 116.92 121.001 116.92L130.311 118.259C130.8 118.655 131.159 119.189 131.341 119.791C131.718 120.885 131.379 122.078 131.021 122.361C131.021 122.361 121.786 122.914 119.97 122.568C118.155 122.223 109.165 116.254 109.165 116.254C108.306 115.606 107.585 114.793 107.045 113.862C106.506 112.93 106.158 111.901 106.024 110.833C105.439 107.045 106.099 105.323 106.099 105.323Z" fill="#455A64"/>
<path d="M97.8188 138.506L83.5516 155.921C83.3932 155.941 83.2338 155.952 83.0742 155.952C82.5084 155.961 81.9493 155.83 81.447 155.569L69.3976 148.608L68.5809 148.137C68.1348 147.88 67.7642 146.824 67.7642 145.781V142.848C67.7637 139.834 68.5565 136.873 70.0628 134.263C71.5692 131.653 73.7361 129.485 76.3458 127.977L90.7323 119.672L106.042 128.511L97.8188 138.506Z" fill="#C49E85"/>
<g opacity="0.1">
<path d="M97.8188 138.506L83.5516 155.921C83.3932 155.941 83.2338 155.952 83.0742 155.952C82.5084 155.961 81.9493 155.83 81.447 155.569L69.3976 148.608L68.5809 148.137C68.1348 147.88 67.7642 146.824 67.7642 145.781V142.848C67.7637 139.834 68.5565 136.873 70.0628 134.263C71.5692 131.653 73.7361 129.485 76.3458 127.977L90.7323 119.672L106.042 128.511L97.8188 138.506Z" fill="black"/>
</g>
<path d="M92.9 144.512L106.024 128.518L90.7137 119.678L76.3335 127.977C74.4733 129.054 72.8323 130.471 71.4961 132.155L92.9 144.512Z" fill="#C49E85"/>
<path d="M106.024 141.359C106.024 142.401 105.659 143.457 105.207 143.714L104.39 144.186L84.6891 155.563C84.3306 155.756 83.938 155.878 83.5331 155.921C83.3747 155.941 83.2153 155.952 83.0557 155.952V151.687C83.0552 148.672 83.8486 145.711 85.3562 143.1C86.8638 140.49 89.0323 138.323 91.6436 136.817L93.2707 135.88L106.024 128.511V141.359Z" fill="#C49E85"/>
<g opacity="0.2">
<path d="M106.024 141.359C106.024 142.401 105.659 143.457 105.207 143.714L104.39 144.186L84.6891 155.563C84.3306 155.756 83.938 155.878 83.5331 155.921C83.3747 155.941 83.2153 155.952 83.0557 155.952V151.687C83.0552 148.672 83.8486 145.711 85.3562 143.1C86.8638 140.49 89.0323 138.323 91.6436 136.817L93.2707 135.88L106.024 128.511V141.359Z" fill="black"/>
</g>
<path d="M110.251 162.907L117.96 162.882L128.991 156.512L118.186 164.32L110.05 164.434L110.251 162.907Z" fill="#E0E0E0"/>
<path d="M91.5368 173.876C91.5368 173.876 105.433 168.636 106.614 168.021C108 167.171 109.316 166.211 110.547 165.15C110.798 164.817 110.916 164.403 110.878 163.988C110.84 163.573 110.648 163.188 110.34 162.907C110.34 162.907 104.686 162.649 103.234 163.095C102.424 163.34 89.3442 167.537 89.3442 167.537L91.5368 173.876Z" fill="#E0E0E0"/>
<path d="M90.9147 168.021C89.765 167.034 88.6091 167.443 88.3264 168.925C88.2184 169.743 88.3049 170.575 88.5789 171.354C88.8529 172.132 89.3066 172.835 89.9032 173.405C91.0529 174.391 92.2088 173.989 92.4915 172.5C92.599 171.682 92.5122 170.85 92.2383 170.072C91.9643 169.294 91.5109 168.591 90.9147 168.021Z" fill="#455A64"/>
</g>
<defs>
<clipPath id="clip0_131_1033">
<rect width="246" height="246" fill="white"/>
</clipPath>
</defs>
</svg>
